<?xml version="1.0" encoding="UTF-8" standalone="no"?>
<svg
   width="501"
   height="133"
   viewBox="0 0 501 133"
   fill="none"
   version="1.1"
   id="svg36"
   sodipodi:docname="logo-large.svg"
   inkscape:version="1.1.2 (b8e25be833, 2022-02-05)"
   xmlns:inkscape="http://www.inkscape.org/namespaces/inkscape"
   xmlns:sodipodi="http://sodipodi.sourceforge.net/DTD/sodipodi-0.dtd"
   xmlns="http://www.w3.org/2000/svg"
   xmlns:svg="http://www.w3.org/2000/svg">
  <defs
     id="defs40" />
  <sodipodi:namedview
     id="namedview38"
     pagecolor="#ffffff"
     bordercolor="#666666"
     borderopacity="1.0"
     inkscape:pageshadow="2"
     inkscape:pageopacity="0.0"
     inkscape:pagecheckerboard="0"
     showgrid="false"
     inkscape:zoom="2.5349301"
     inkscape:cx="80.081102"
     inkscape:cy="66.47126"
     inkscape:window-width="1920"
     inkscape:window-height="1051"
     inkscape:window-x="-9"
     inkscape:window-y="-9"
     inkscape:window-maximized="1"
     inkscape:current-layer="svg36" />
  <path
     d="M336.467 7.59991C336.067 7.99991 336.067 9.73325 336.467 11.3332C337.133 13.8666 336.467 14.3999 332.867 15.1999C330.6 15.5999 325.133 15.9999 320.867 15.9999C313.933 15.9999 313 15.7332 313 13.3332C313 11.5999 312.067 10.6666 310.467 10.6666C309.133 10.6666 304.333 10.2666 299.8 9.86658C291.667 8.93325 291.667 8.93325 291.667 12.3999C291.667 16.7999 290.867 17.1999 280.733 18.7999C276.067 19.4666 270.733 20.3999 268.733 20.7999C265.933 21.3332 265 21.0666 265 19.5999C265 18.2666 262.067 16.9332 255.533 15.4666C250.333 14.2666 245.533 13.5999 245 13.9999C244.333 14.3999 243.533 17.0666 243 19.9999L242.067 25.3332H230.867H219.667V30.6666V35.9999H229.133H238.6L237.8 39.5999C237.4 41.7332 236.733 48.2666 236.333 54.1333L235.4 65.0666L230.867 63.5999C228.333 62.7999 226.067 62.5333 225.8 62.7999C225.533 63.0666 224.867 65.5999 224.333 68.2666L223.4 73.0666L229.533 73.9999C235.133 74.9333 235.533 75.1999 234.867 78.1333C234.067 81.3333 234.067 81.3333 244.867 81.3333C255.4 81.3333 255.667 81.1999 255.667 78.1333C255.667 75.3333 256.467 74.9333 263.133 73.9999C267.267 73.4666 273 72.2666 275.933 71.1999C282.733 68.7999 283.667 68.7999 283.667 71.3333C283.667 72.9333 285.8 73.3333 294.333 73.3333H305V67.4666C305 61.7333 305 61.5999 310.867 60.1333C314.2 59.3333 319.267 58.6666 322.2 58.6666C327 58.6666 327.533 59.0666 327.267 61.4666C327 63.8666 328.2 64.7999 333.667 66.6666C347 71.1999 346.333 71.1999 347.8 66.9333C349.133 63.1999 349.267 63.1999 355.4 64.1333C358.867 64.7999 364.467 65.5999 367.8 66.1333C373.267 66.9333 373.8 67.3333 373.267 69.9999C372.733 72.7999 373.4 73.1999 379.133 73.9999C382.733 74.3999 387.667 75.0666 390.067 75.4666C394.067 76.1333 394.333 75.8666 394.333 72.1333V68.2666L416.2 67.7333C428.2 67.5999 438.467 67.0666 438.733 66.6666C439.133 66.2666 439.8 63.7333 440.333 60.9333L441.267 55.8666L419.267 56.5333L397.267 57.1999L397.933 46.9333C398.2 41.3332 398.733 35.9999 399 35.1999C399.4 33.8666 404.2 33.1999 430.733 31.0666L441 30.2666V24.9332V19.5999L431.4 20.5332C426.067 21.0666 417 21.7332 411.4 22.2666L401 23.0666V19.4666C401 15.9999 401 15.9999 390.333 15.9999C379.8 15.9999 379.667 15.9999 379.667 19.3332C379.667 22.1332 379.267 22.5332 377.4 21.4666C376.067 20.7999 371.267 19.8666 366.733 19.3332C360.6 18.6666 358.467 17.8666 357.933 15.9999C357.533 14.5332 353.933 12.5332 347.267 10.2666C341.667 8.39991 336.867 7.19991 336.467 7.59991ZM333.8 27.5999C333.267 28.7999 332.6 32.6666 332.2 35.9999C330.733 48.2666 331.533 47.4666 319.667 48.5333C313.8 48.9333 308.067 49.7333 306.867 50.2666C305 50.9333 304.867 50.1333 305.8 44.5333C306.333 40.9332 307.4 35.5999 308.2 32.6666L309.8 27.3332L319.667 26.5332C325.133 26.1332 330.733 25.7332 332.2 25.5999C333.933 25.3332 334.333 25.8666 333.8 27.5999ZM286.067 34.2666C285.533 37.8666 284.6 44.5333 284.067 49.3333L283 57.8666L273.667 60.9333C268.6 62.5333 262.6 63.8666 260.467 63.8666L256.6 63.9999L257.4 54.2666C257.933 49.0666 259 41.9999 260.067 38.6666L261.8 32.7999L273 30.5332C279.267 29.3332 285 28.2666 285.8 28.1332C286.733 27.9999 286.867 29.9999 286.067 34.2666ZM371.933 30.7999C374.6 31.4666 377.267 32.6666 377.667 33.4666C379 35.4666 375.8 53.7333 373.933 55.7333C372.6 56.9333 371.133 57.0666 368.2 56.1333C366.067 55.4666 361.533 54.5333 358.067 53.9999C351.667 53.1999 351.667 53.1999 351.667 48.1333C351.667 45.3333 352.2 41.3332 352.867 39.1999C353.533 37.0666 354.467 33.7332 354.867 31.5999C355.667 28.1332 356.067 27.9999 361.4 28.7999C364.467 29.1999 369.267 30.1332 371.933 30.7999Z"
     fill="#76BA99"
     id="path2" />
  <path
     d="M72.4607 75.7505C68.6425 77.2098 65.0252 78.6691 64.4223 79.0059C63.8195 79.3426 61.7094 80.3529 59.6998 81.2509C55.2284 83.2715 50.2547 86.9759 45.8838 91.4099C41.9651 95.4511 36.9411 102.804 37.8454 103.14C39.3526 103.702 38.0464 104.319 33.0727 105.498C30.0583 106.171 25.7376 107.574 23.3764 108.585C21.0151 109.595 16.9457 111.223 14.3332 112.233C11.7207 113.243 9.35944 114.31 9.10825 114.534C8.55561 115.095 10.2638 122.897 10.9671 122.897C11.771 122.897 23.2759 118.407 26.3908 116.892C27.898 116.162 31.3645 115.039 34.1277 114.366L39.0512 113.243L40.9101 115.208C43.9747 118.575 54.9772 125.647 59.75 127.387C60.8553 127.78 63.0659 128.847 64.7238 129.745C68.5922 131.934 71.8578 133 74.5205 133H76.6306V128.903V124.805L74.0181 124.076C72.5612 123.683 69.6473 122.448 67.5874 121.382C65.5276 120.259 63.0156 119.081 62.0108 118.688C59.5993 117.733 56.5849 115.994 51.8121 112.907L47.8934 110.325L52.0633 109.371C63.3171 106.733 67.5874 105.835 70.6018 105.442C72.4105 105.217 76.0277 104.656 78.6402 104.151C86.0757 102.748 87.4322 102.86 89.2408 105.217C91.5016 108.024 97.6309 113.019 100.243 114.085C104.263 115.769 113.055 118.351 113.356 117.958C113.909 117.228 115.818 110.437 115.567 109.932C115.416 109.707 114.562 109.314 113.657 109.146C106.222 107.406 98.7362 103.87 98.7362 102.074C98.7362 101.12 113.607 101.513 118.531 102.579L122.952 103.646L124.208 106.957C126.921 114.141 134.256 122.392 138.978 123.683C140.285 124.02 140.335 123.964 140.887 119.642C141.34 116.218 141.34 115.264 140.837 115.095C140.033 114.815 132.849 107.069 133.1 106.789C133.502 106.34 141.39 108.304 145.459 109.876C147.821 110.83 150.433 111.728 151.287 111.952L152.844 112.289L153.447 107.967C153.749 105.61 153.95 103.589 153.9 103.533C153.045 102.972 141.34 99.1554 138.677 98.5942L135.16 97.8645L139.179 96.9104C141.39 96.4052 144.806 95.5633 146.715 95.1143C148.675 94.6653 151.086 94.2724 152.141 94.2724H154V89.7261V85.1798L150.383 85.5727C148.373 85.7411 145.459 86.3024 143.952 86.6953C142.445 87.0881 139.179 87.8739 136.667 88.4352C134.205 88.9403 129.232 90.3435 125.665 91.5783C119.736 93.5989 118.983 93.7111 116.722 93.206C115.366 92.8692 113.205 92.5886 111.899 92.5325C109.99 92.4763 109.789 92.4202 110.794 92.0834C111.497 91.8028 112.803 91.2415 113.657 90.7364C114.562 90.1751 115.667 89.7822 116.119 89.7822C116.571 89.7822 119.184 88.9965 121.846 88.0984L126.72 86.4146L125.514 82.6541C124.861 80.6335 124.208 78.7814 124.107 78.5568C123.856 78.0517 113.155 81.3071 109.337 82.9909C104.815 85.0114 93.5615 91.2977 91.8031 92.757C90.3461 93.9918 89.3915 94.2163 84.5183 94.553C81.4034 94.7775 76.7813 95.3949 74.1689 96.0123C71.5564 96.5736 68.743 97.0787 67.9391 97.0787C67.085 97.0787 64.0204 97.5839 61.1065 98.2574C58.1926 98.8748 54.2236 99.7167 52.2643 100.11L48.7475 100.895L51.7619 97.7523C55.3289 94.0479 60.5036 90.2313 63.3171 89.221C64.4223 88.8281 66.1305 88.0423 67.1353 87.481C68.0898 86.9759 71.8578 85.4605 75.4249 84.1695C78.9919 82.8786 82.0565 81.7 82.2575 81.5877C82.6594 81.3071 80.1976 72.9442 79.7455 73.0003C79.5445 73.0003 76.2789 74.2351 72.4607 75.7505Z"
     fill="#76BA99"
     id="path4" />
  <path
     d="M201.664 95.3133L201.255 94.1537L200.038 94.3276C199.445 94.4122 198.75 94.5176 197.954 94.6434L197.954 94.6433L197.941 94.6454C197.783 94.6717 197.626 94.6998 197.47 94.7295C197.466 93.8823 197.476 93.035 197.499 92.1877C197.578 90.7976 197.811 89.2688 198.209 87.5974L198.299 87.2203L198.195 86.8468C197.125 83.0151 195.229 79.8886 192.471 77.5446L191.827 76.9972L191.026 77.2645C189.676 77.7142 188.629 78.5776 188.021 79.8551L188.014 79.8697L188.007 79.8845C187.57 80.8553 187.266 81.9229 187.081 83.0755L187.077 83.1046L187.073 83.1338C186.948 84.1801 186.822 85.2678 186.697 86.3969L186.694 86.4221L186.692 86.4475C186.621 87.3696 186.413 88.1002 186.11 88.6764L185.803 89.2592L186.025 89.8795C186.168 90.2788 186.217 90.6543 186.191 91.0181L186.188 91.0715V91.125C186.188 91.6009 186.137 92.1064 186.029 92.6433L186.02 92.691L186.013 92.7393C185.933 93.3407 185.832 93.9864 185.71 94.6768L185.704 94.714L185.699 94.7514C185.638 95.2379 185.615 95.7302 185.629 96.2274C185.434 96.4554 185.307 96.7059 185.229 96.952C184.994 96.9774 184.757 97.0368 184.532 97.1374C184.031 97.0545 183.526 97.03 183.018 97.0663L183.018 97.0663L183.01 97.0669L182.197 97.1294L181.385 97.1919C181.037 97.2187 180.713 97.197 180.409 97.1321C180.354 97.1 180.253 97.0258 180.114 96.8648C180.077 95.9865 179.94 95.1563 179.689 94.3854C179.463 93.5383 179.171 92.7284 178.811 91.9576C178.506 91.2227 178.161 90.5084 177.773 89.815C177.502 89.2288 177.295 88.6051 177.155 87.941L176.966 87.044L176.082 86.8029C175.887 86.7497 175.763 86.6814 175.68 86.6151L175.387 86.225L175.07 85.8014C174.824 85.3756 174.531 84.9851 174.192 84.6344C173.721 84.0501 173.092 83.6806 172.395 83.4904L171.708 83.303L171.128 83.7169C170.41 84.2298 169.792 84.8476 169.279 85.5656C168.853 86.1627 168.427 86.7802 168.002 87.4179L167.858 87.6341L167.795 87.8862C167.495 89.0859 167.431 90.3887 167.57 91.7743C167.699 93.0665 167.892 94.4372 168.148 95.8857C168.399 97.3114 168.672 98.7783 168.965 100.286C169.247 101.736 169.448 103.163 169.568 104.566L169.611 105.067L169.948 105.441C170.287 105.819 170.609 106.216 170.912 106.632L170.937 106.667L170.964 106.7L171.527 107.387L172.089 108.075L172.111 108.102L172.135 108.128C172.564 108.605 173.036 109.053 173.55 109.473L173.583 109.5L173.618 109.526C174.245 109.982 174.96 110.304 175.739 110.512L175.928 110.562H176.125C176.31 110.562 176.634 110.579 177.125 110.62C177.592 110.659 178.104 110.718 178.663 110.797L178.719 110.805L178.775 110.809C179.334 110.846 179.894 110.921 180.456 111.033L180.51 111.044L180.564 111.051C180.628 111.059 180.691 111.067 180.753 111.075C180.559 111.94 180.382 112.745 180.222 113.493C179.959 114.677 179.782 115.827 179.692 116.943L179.663 117.313L179.746 117.508C179.744 117.521 179.74 117.535 179.736 117.551C179.721 117.608 179.698 117.682 179.662 117.774C179.332 118.634 179.306 119.531 179.558 120.412L179.744 121.065C179.871 121.722 180.032 122.463 180.228 123.285C180.459 124.253 180.781 125.197 181.195 126.116C181.632 127.088 182.2 127.958 182.903 128.711L182.906 128.713C183.728 129.591 184.737 130.182 185.903 130.459L186.291 130.552L186.673 130.439C187.228 130.276 187.854 130.188 188.562 130.188C189.633 130.188 190.676 129.983 191.682 129.58L192.059 129.429L192.309 129.108C192.689 128.62 192.985 128.072 193.133 127.467C193.283 126.998 193.365 126.517 193.374 126.028L193.428 125.541L193.491 124.978C193.514 124.769 193.574 124.543 193.683 124.297L193.919 123.765L193.736 123.213C193.522 122.574 193.143 122.034 192.654 121.595L192.651 121.593L192.65 121.591L192.648 121.589L192.645 121.586L192.643 121.584L192.641 121.582L192.638 121.579L192.636 121.577L192.634 121.576L192.631 121.572L192.629 121.57L192.628 121.569L192.624 121.565L192.622 121.564L192.621 121.562L192.619 121.56L192.617 121.558L192.616 121.557L192.614 121.555L192.61 121.552L192.607 121.548L192.604 121.545L192.602 121.543L192.6 121.541L192.597 121.538L192.593 121.535L192.59 121.531L192.588 121.529L192.587 121.528L192.583 121.524L192.581 121.523L192.58 121.521L192.576 121.517L192.575 121.516L192.573 121.514L192.569 121.511L192.568 121.509L192.566 121.507L192.564 121.506L192.563 121.504L192.561 121.502L192.559 121.5L192.556 121.497L192.554 121.495L192.552 121.494L192.549 121.49L192.546 121.487L192.542 121.483L192.54 121.482L192.539 121.48L192.535 121.476L192.534 121.475L192.532 121.473L192.528 121.47L192.527 121.468L192.525 121.466L192.522 121.463L192.52 121.461L192.518 121.459L192.515 121.456L192.513 121.454L192.511 121.453L192.51 121.451L192.508 121.449L192.506 121.447L192.505 121.446L192.501 121.442L192.498 121.439L192.494 121.435L192.493 121.434L192.491 121.432L192.487 121.429L192.484 121.425L192.481 121.422L192.479 121.42L192.477 121.418L192.474 121.415L192.472 121.413L192.47 121.412L192.467 121.408L192.465 121.406L192.463 121.405L192.46 121.401L192.458 121.4L192.457 121.398L192.455 121.396L192.453 121.394L192.452 121.393L192.45 121.391L192.446 121.388L192.445 121.386L192.443 121.384L192.44 121.381L192.436 121.377L192.433 121.374L192.431 121.372L192.429 121.37L192.426 121.367L192.424 121.365L192.422 121.364L192.419 121.36L192.417 121.359L192.416 121.357L192.412 121.353L192.411 121.352L192.409 121.35L192.405 121.347L192.404 121.345L192.402 121.343L192.4 121.341L192.399 121.34L192.397 121.338L192.395 121.336L192.392 121.333L192.388 121.329L192.385 121.326L192.383 121.324L192.381 121.323L192.378 121.319L192.375 121.316L192.371 121.312L192.369 121.311L192.368 121.309L192.364 121.306L192.363 121.304L192.361 121.302L192.358 121.299L192.356 121.297L192.354 121.295L192.351 121.292L192.349 121.29L192.347 121.288L192.346 121.287L192.344 121.285L192.342 121.283L192.34 121.282L192.337 121.278L192.335 121.276L192.334 121.275L192.33 121.271L192.327 121.268L192.323 121.265L192.322 121.263L192.32 121.261L192.317 121.258L192.315 121.256L192.313 121.254L192.31 121.251L192.308 121.249L192.306 121.247L192.303 121.244L192.301 121.242L192.299 121.241L192.296 121.237L192.294 121.235L192.293 121.234L192.291 121.232L192.289 121.23L192.287 121.229L192.286 121.227L192.282 121.224L192.279 121.22L192.276 121.217L192.274 121.215L192.272 121.213L192.269 121.21L192.265 121.206L192.262 121.203L192.26 121.201L192.258 121.2L192.255 121.196L192.253 121.194L192.252 121.193L192.248 121.189L192.246 121.188L192.245 121.186L192.241 121.183L192.24 121.181L192.238 121.179L192.236 121.177L192.234 121.176L192.233 121.174L192.231 121.172L192.228 121.169L192.226 121.167L192.224 121.165L192.221 121.162L192.217 121.159L192.214 121.155L192.212 121.153L192.211 121.152L192.207 121.148L192.205 121.147L192.204 121.145L192.2 121.141L192.199 121.14L192.197 121.138L192.193 121.135L192.192 121.133L192.19 121.131L192.187 121.128L192.185 121.126L192.183 121.124L192.182 121.123L192.18 121.121L192.178 121.119L192.176 121.118L192.173 121.114L192.17 121.111L192.166 121.107L192.164 121.106L192.163 121.104L192.159 121.1L192.156 121.097L192.152 121.094L192.151 121.092L192.149 121.09L192.146 121.087L192.144 121.085L192.142 121.083L192.139 121.08L192.137 121.078L192.135 121.077L192.132 121.073L192.13 121.071L192.129 121.07L192.127 121.068L192.125 121.066L192.123 121.065L192.122 121.063L192.118 121.059L192.117 121.058L192.115 121.056L192.111 121.053L192.108 121.049L192.105 121.046L192.103 121.044L192.101 121.042L192.098 121.039L192.096 121.037L192.094 121.036L192.091 121.032L192.089 121.03L192.088 121.029L192.084 121.025L192.082 121.024L192.081 121.022L192.077 121.018L192.076 121.017L192.074 121.015L192.072 121.013L192.07 121.012L192.069 121.01L192.067 121.008L192.064 121.005L192.06 121.001L192.057 120.998L192.055 120.996L192.053 120.995L192.05 120.991L192.046 120.988L192.043 120.984L192.041 120.983L192.04 120.981L192.036 120.977L192.035 120.976L192.033 120.974L192.029 120.971L192.028 120.969L192.026 120.967L192.023 120.964L192.021 120.962L192.019 120.96L192.017 120.959L192.016 120.957L192.014 120.955L192.012 120.953L192.009 120.95L192.007 120.948L192.005 120.947L192.002 120.943L191.999 120.94L191.995 120.936L191.994 120.935L191.992 120.933L191.988 120.93L191.987 120.928L191.985 120.926L191.982 120.923L191.98 120.921L191.978 120.919L191.975 120.916L191.973 120.914L191.971 120.912L191.968 120.909L191.966 120.907L191.964 120.906L191.963 120.904L191.961 120.902L191.959 120.901L191.958 120.899L191.954 120.895L191.951 120.892L191.947 120.889L191.946 120.887L191.944 120.885L191.941 120.882L191.937 120.878L191.934 120.875L191.932 120.873L191.93 120.871L191.927 120.868L191.925 120.866L191.923 120.865L191.92 120.861L191.918 120.86L191.917 120.858L191.913 120.854L191.911 120.853L191.91 120.851L191.908 120.849L191.906 120.848L191.905 120.846L191.903 120.844L191.9 120.841L191.898 120.839L191.896 120.837L191.893 120.834L191.889 120.83L191.886 120.827L191.884 120.825L191.882 120.824L191.879 120.82L191.877 120.818L191.876 120.817L191.872 120.813L191.87 120.812L191.869 120.81L191.865 120.807L191.864 120.805L191.862 120.803L191.859 120.8L191.857 120.798L191.855 120.796L191.853 120.795L191.852 120.793L191.85 120.791L191.848 120.789L191.845 120.786L191.841 120.783L191.838 120.779L191.836 120.777L191.835 120.776L191.831 120.772L191.828 120.769L191.824 120.766L191.823 120.764L191.821 120.762L191.817 120.759L191.816 120.757L191.814 120.755L191.811 120.752C191.653 120.594 191.537 120.441 191.452 120.293C191.455 120.238 191.473 120.124 191.538 119.942L191.809 119.183L191.325 118.537C191.19 118.357 191.035 118.2 190.867 118.065C191.256 116.512 191.687 115.082 192.156 113.772C192.726 112.29 193.262 110.791 193.763 109.275C194.241 108.98 194.752 108.736 195.298 108.544C196.155 108.259 196.991 107.994 197.806 107.749L197.828 107.743L197.849 107.736C198.774 107.427 199.659 107.074 200.504 106.674C201.501 106.224 202.372 105.613 203.097 104.836L203.327 104.589L203.429 104.267C203.756 103.24 203.923 102.231 203.799 101.302C203.744 100.887 203.762 100.262 203.915 99.382L204.093 98.3587L203.198 97.8321C202.656 97.5135 202.444 97.2361 202.362 97.0589C202.136 96.5687 201.903 95.9884 201.664 95.3133Z"
     fill="#76BA99"
     stroke="black"
     stroke-width="3"
     id="path6" />
  <path
     d="M1.375 27.75C1.33333 27.4167 1.25 27.125 1.125 26.875C1.04167 26.5833 0.9375 26.2708 0.8125 25.9375C0.604167 25.4375 0.416667 24.8958 0.25 24.3125C0.0833333 23.7292 0 23.0417 0 22.25C0.0833333 21.8333 0.1875 21.5417 0.3125 21.375C0.4375 21.1667 0.5625 21 0.6875 20.875L0.9375 19.75H1.875C2.20833 19.7917 2.54167 19.8125 2.875 19.8125C3.25 19.8125 3.60417 19.8125 3.9375 19.8125C5.52083 19.8125 7.14583 19.75 8.8125 19.625C10.4792 19.5 12.1875 19.3542 13.9375 19.1875C15.8542 18.9375 17.9167 18.75 20.125 18.625C20.3333 18.1667 20.4583 17.875 20.5 17.75C20.5833 17.625 20.6667 17.4792 20.75 17.3125L21.4375 16.9375C22.3958 16.8958 23.0625 17.0208 23.4375 17.3125C23.8125 17.5625 24.1042 17.8125 24.3125 18.0625C25.3958 17.9792 26.5 17.875 27.625 17.75C28.75 17.5833 29.9167 17.4167 31.125 17.25C32.7917 17.0417 34.4792 16.8333 36.1875 16.625C37.8958 16.4167 39.5625 16.3125 41.1875 16.3125C41.8958 16.3125 42.5625 16.3333 43.1875 16.375C43.8125 16.4167 44.4167 16.4792 45 16.5625L45.75 17.125C45.9167 17.4167 46.125 17.6875 46.375 17.9375C46.625 18.1875 46.9167 18.4375 47.25 18.6875C47.875 19.1875 48.4792 19.8125 49.0625 20.5625C49.6875 21.3125 49.9167 22.4167 49.75 23.875L49.4375 24.5C49.2708 24.6667 49.0625 24.8333 48.8125 25L48.1875 25.8125H47.5C47.0833 25.8125 46.7708 25.8542 46.5625 25.9375C46.3542 25.9792 46.1042 26.0625 45.8125 26.1875C45.6458 26.2708 45.4583 26.3542 45.25 26.4375C45.0417 26.4792 44.8125 26.5417 44.5625 26.625C44.1042 26.5833 43.75 26.5625 43.5 26.5625C43.25 26.5625 42.9583 26.5625 42.625 26.5625C41.375 26.5625 40.0208 26.6458 38.5625 26.8125C37.1042 26.9792 35.6875 27.1667 34.3125 27.375C33.3125 27.5 32.3542 27.625 31.4375 27.75C30.5208 27.8333 29.6875 27.9167 28.9375 28C28.5208 29.0833 28.1458 30.0417 27.8125 30.875C27.4792 31.7083 27.125 32.5417 26.75 33.375C26.375 34.2083 26.0208 35.0625 25.6875 35.9375C25.3542 36.7708 25.0417 37.7083 24.75 38.75C24.25 39.5 23.8333 40.2292 23.5 40.9375C23.1667 41.6042 22.8958 42.375 22.6875 43.25C22.0625 43.9583 21.6042 44.7292 21.3125 45.5625C21.0625 46.3958 20.8333 47.1042 20.625 47.6875L20.375 48.625C20.0833 48.9167 19.8958 49.1458 19.8125 49.3125C19.7708 49.4792 19.6667 49.6667 19.5 49.875C19.375 50.4167 19.2083 50.9375 19 51.4375C18.9167 51.6458 18.8333 51.875 18.75 52.125C18.6667 52.3333 18.6458 52.5 18.6875 52.625C18.6042 53.0833 18.4792 53.4375 18.3125 53.6875C18.3125 53.9375 18.2917 54.1875 18.25 54.4375C18.2083 54.6875 18.1667 54.9375 18.125 55.1875C18.0417 55.4792 17.9792 55.75 17.9375 56C17.8958 56.2083 17.9167 56.4167 18 56.625C18.125 56.7917 18.25 56.9583 18.375 57.125C18.5 57.2917 18.6042 57.5 18.6875 57.75C18.7708 57.8333 18.875 57.8958 19 57.9375C19.125 57.9792 19.2292 58.0417 19.3125 58.125C19.6458 58.4167 19.9583 58.5833 20.25 58.625L20.875 59.375C21.125 60.875 20.8958 62.0417 20.1875 62.875C19.4375 63.8333 18.1875 64.3125 16.4375 64.3125L15.5625 64.25C15.2708 63.9583 15.1042 63.7708 15.0625 63.6875C14.6875 63.5208 14.375 63.375 14.125 63.25C13.875 63.1667 13.6458 62.9792 13.4375 62.6875C13.3542 62.6042 13.25 62.5625 13.125 62.5625C13 62.5208 12.8958 62.4583 12.8125 62.375C12.3958 62.25 12.0625 62.1042 11.8125 61.9375L11.125 61.5625C11.1667 61.1458 11.1875 60.8542 11.1875 60.6875C10.8542 60.2292 10.5833 59.7292 10.375 59.1875C10.2083 58.6458 10.0625 58.0833 9.9375 57.5C9.8125 57.0417 9.6875 56.625 9.5625 56.25C9.47917 55.875 9.33333 55.5417 9.125 55.25C9.04167 52.3333 9.3125 49.8958 9.9375 47.9375C10.5625 45.9375 11.25 44 12 42.125C12.4167 41.125 12.8125 40.1042 13.1875 39.0625C13.5625 38.0208 13.8958 36.9583 14.1875 35.875L14.875 35.1875C15.1667 34.9375 15.3542 34.7917 15.4375 34.75C15.4375 34.2083 15.5417 33.6875 15.75 33.1875C15.9583 32.6458 16.1875 32.1042 16.4375 31.5625C16.6042 31.2292 16.75 30.8958 16.875 30.5625C17.0417 30.2292 17.1458 29.9375 17.1875 29.6875C16.8958 29.6875 16.625 29.7083 16.375 29.75C16.1667 29.75 15.9375 29.7708 15.6875 29.8125C15.1458 29.9375 14.625 30 14.125 30C13.75 30 13.4792 29.9792 13.3125 29.9375C12.9792 30.1042 12.6667 30.2083 12.375 30.25C12.0833 30.25 11.7917 30.25 11.5 30.25H10C9.5 30.25 9.10417 30.3125 8.8125 30.4375C8.22917 30.4375 7.85417 30.4375 7.6875 30.4375C7.52083 30.4375 7.33333 30.4375 7.125 30.4375H5.625C5.29167 30.4375 4.91667 30.4167 4.5 30.375C4.08333 30.2917 3.64583 30.125 3.1875 29.875L2.75 29.375C2.5 28.9167 2.27083 28.6667 2.0625 28.625L1.375 28.4375V27.75Z"
     fill="black"
     id="path8" />
  <path
     d="M48.9375 56.5C48.4792 58.1667 48.0625 59.4375 47.6875 60.3125C47.3542 61.1458 46.8333 62.0208 46.125 62.9375C45.5833 62.8542 45.2083 62.9167 45 63.125C44.7917 63.3333 44.5625 63.5208 44.3125 63.6875C43.9375 63.7708 43.6667 63.7708 43.5 63.6875C43.3333 63.6042 43.1875 63.5 43.0625 63.375C42.9375 63.2917 42.7708 63.1875 42.5625 63.0625C42.3958 62.9792 42.125 62.9375 41.75 62.9375C41.6667 62.6042 41.5625 62.2917 41.4375 62C41.3542 61.7083 41.0833 61.6042 40.625 61.6875C40.7083 61.3542 40.7292 61.0833 40.6875 60.875C40.6458 60.625 40.5833 60.4167 40.5 60.25C40.4583 60.0417 40.4167 59.8542 40.375 59.6875C40.3333 59.4792 40.3542 59.2292 40.4375 58.9375C40.2292 58.9375 40.0625 58.7917 39.9375 58.5C39.8125 58.2083 39.6667 57.9167 39.5 57.625C39.625 56.875 39.75 56.1667 39.875 55.5C40 54.8333 40.1458 54.2083 40.3125 53.625C40.5208 53.0417 40.6875 52.4583 40.8125 51.875C40.9375 51.2917 40.875 50.6875 40.625 50.0625C40.7917 50.1875 40.9167 50.1667 41 50C41.0833 49.7917 41.1458 49.5417 41.1875 49.25C41.2292 48.9167 41.25 48.6042 41.25 48.3125C41.25 47.9792 41.2292 47.7083 41.1875 47.5C41.6042 46.4167 41.9375 45.3125 42.1875 44.1875C42.4792 43.0208 42.7292 41.875 42.9375 40.75C43.1875 39.625 43.4375 38.5208 43.6875 37.4375C43.9375 36.3542 44.2708 35.3542 44.6875 34.4375C45.1458 34.3542 45.6458 34.4167 46.1875 34.625C46.7708 34.7917 47.125 35.0208 47.25 35.3125C48.3333 34.4792 49.2917 33.4792 50.125 32.3125C50.9583 31.1042 51.8125 29.9375 52.6875 28.8125C53.5625 27.6875 54.5208 26.6875 55.5625 25.8125C56.6458 24.9375 58 24.4167 59.625 24.25C60.4583 24.875 61.375 25.5208 62.375 26.1875C63.4167 26.8125 64.2708 27.6458 64.9375 28.6875C65.2708 28.8542 65.5417 29.0417 65.75 29.25C66 29.4167 66.2917 29.6042 66.625 29.8125V30.5625C67.125 31.0208 67.5208 31.5625 67.8125 32.1875C68.1458 32.7708 68.4375 33.4167 68.6875 34.125C68.9375 34.7917 69.1875 35.4792 69.4375 36.1875C69.6875 36.8542 69.9792 37.5 70.3125 38.125C70.2292 38.3333 70.1875 38.5208 70.1875 38.6875C70.1875 38.8125 70.2083 38.9583 70.25 39.125C70.3333 39.2917 70.3958 39.4583 70.4375 39.625C70.4792 39.7917 70.4792 40.0208 70.4375 40.3125C70.3125 42.1458 69.7083 43.625 68.625 44.75C67.5833 45.875 66.3125 46.8125 64.8125 47.5625C63.3125 48.2708 61.7083 48.875 60 49.375C58.2917 49.875 56.75 50.4167 55.375 51C55.375 51.1667 55.4375 51.25 55.5625 51.25C55.7292 51.25 55.7917 51.3542 55.75 51.5625C56.75 52.1875 57.5417 52.6875 58.125 53.0625C58.7083 53.4375 59.25 53.75 59.75 54C60.2917 54.25 60.8542 54.4792 61.4375 54.6875C62.0625 54.8542 62.9167 55.0625 64 55.3125C65.0833 55.5625 65.9167 55.7708 66.5 55.9375C67.125 56.0625 67.6875 56.1875 68.1875 56.3125C68.6875 56.3958 69.1875 56.4792 69.6875 56.5625C70.2292 56.6042 70.9792 56.6667 71.9375 56.75C72.3125 57.125 72.625 57.5833 72.875 58.125C73.1667 58.625 73.3542 59.1458 73.4375 59.6875C73.5208 60.1875 73.5417 60.6875 73.5 61.1875C73.4583 61.6458 73.3125 62.0208 73.0625 62.3125C73.1042 62.4375 73.1875 62.5 73.3125 62.5C73.4792 62.4583 73.6458 62.4583 73.8125 62.5C73.5625 62.6667 73.3542 62.875 73.1875 63.125C73.0208 63.375 72.8542 63.625 72.6875 63.875C72.5208 64.125 72.3333 64.3333 72.125 64.5C71.9167 64.7083 71.625 64.8333 71.25 64.875C69.9583 65.375 68.3333 65.3958 66.375 64.9375C64.4167 64.5208 61.9375 63.7292 58.9375 62.5625C57.4375 61.9792 56.2083 61.4792 55.25 61.0625C54.3333 60.6042 53.5208 60.1667 52.8125 59.75C52.1458 59.2917 51.5208 58.8125 50.9375 58.3125C50.3958 57.8125 49.7292 57.2083 48.9375 56.5ZM57.875 35.0625C57.4167 35.7292 56.8958 36.3333 56.3125 36.875C55.7708 37.4167 55.2292 37.9792 54.6875 38.5625C54.1875 39.1042 53.7292 39.7292 53.3125 40.4375C52.8958 41.1042 52.6042 41.8958 52.4375 42.8125C53.8958 42.6458 55.4167 42.25 57 41.625C58.5833 40.9583 60.0833 40.3333 61.5 39.75C61.3333 38.4583 60.875 37.4167 60.125 36.625C59.4167 35.8333 58.6667 35.3125 57.875 35.0625Z"
     fill="black"
     id="path10" />
  <path
     d="M106.562 57.75C106.312 58.4583 105.938 59.1875 105.438 59.9375C104.979 60.6458 104.417 61.2917 103.75 61.875C103.125 62.4167 102.417 62.875 101.625 63.25C100.833 63.625 100 63.8333 99.125 63.875C98.5833 63.75 98.2083 63.6042 98 63.4375C97.8333 63.3125 97.6458 63.1875 97.4375 63.0625C97.3125 62.9792 97.1875 62.9167 97.0625 62.875C96.9792 62.7917 96.8958 62.7292 96.8125 62.6875L96.0625 62.375L96.3125 61.5625C96.3958 61.2292 96.375 60.9792 96.25 60.8125C96.125 60.6042 95.875 60.3333 95.5 60C95.375 59.875 95.25 59.75 95.125 59.625C95 59.5 94.8958 59.375 94.8125 59.25L93.75 58.0625L95.4375 57.625C96.4792 57.3333 97.1667 56.9583 97.5 56.5C97.875 56.0417 98.0208 55.2708 97.9375 54.1875C97.1042 54.0208 96.3958 54 95.8125 54.125C95.2708 54.25 94.7083 54.3958 94.125 54.5625C93.375 54.7708 92.6042 54.9583 91.8125 55.125C91.0625 55.25 90.2292 55.3125 89.3125 55.3125C88.9792 55.3125 88.6667 55.3125 88.375 55.3125C88.0833 55.2708 87.7708 55.2292 87.4375 55.1875L86.8125 55.0625C86.7292 54.6042 86.6458 54.3542 86.5625 54.3125C86.4792 54.2292 86.3958 54.1458 86.3125 54.0625C86.1042 53.8542 85.875 53.5833 85.625 53.25C85.4167 52.875 85.375 52.4167 85.5 51.875C85.2917 51.5 85.1667 51.125 85.125 50.75C84.875 51.25 84.6875 51.7708 84.5625 52.3125L84.3125 52.9375L83.6875 53.0625C83.6042 53.1042 83.5417 53.2083 83.5 53.375C83.4583 53.5 83.4375 53.6042 83.4375 53.6875L83.125 54.75C83.0417 54.8333 82.9583 54.9167 82.875 55C82.7917 55.0417 82.7083 55.1042 82.625 55.1875C82.5417 55.5625 82.4375 55.9375 82.3125 56.3125C82.1875 56.6875 82.0625 57.0417 81.9375 57.375C81.7292 57.9167 81.5417 58.4583 81.375 59C81.25 59.5 81.2083 60 81.25 60.5L81 61.1875C80.7917 61.4375 80.5625 61.6458 80.3125 61.8125C80.0625 61.9375 79.8125 62.0625 79.5625 62.1875C79.4792 62.2708 79.3542 62.3542 79.1875 62.4375C79.0625 62.4792 78.9583 62.5208 78.875 62.5625L78.6875 63.25L77.9375 63.375C77.4792 63.4583 77.1458 63.5208 76.9375 63.5625C76.7708 63.6042 76.5625 63.625 76.3125 63.625L75.6875 63.5625C75.2292 63.1875 74.875 62.8958 74.625 62.6875C74.375 62.4375 74.0833 62.2083 73.75 62C73.375 61.5 73.1667 61.125 73.125 60.875C73.0833 60.625 73.0417 60.3958 73 60.1875C72.9167 59.9375 72.875 59.7292 72.875 59.5625C72.8333 59.3958 72.7708 59.2708 72.6875 59.1875L71.875 58.4375L72.5625 57.875L72.625 56.8125C73.4583 54.6875 74.3333 52.6458 75.25 50.6875C76.2083 48.7292 77.1875 46.7292 78.1875 44.6875C78.5208 44.0208 78.8333 43.3542 79.125 42.6875C79.4583 42.0208 79.7917 41.3542 80.125 40.6875C80.0833 40.5625 80.0625 40.4167 80.0625 40.25C80.0625 40.0833 80.1042 39.8958 80.1875 39.6875C80.6458 38.9792 81.0208 38.3542 81.3125 37.8125C81.6042 37.2292 81.8958 36.6458 82.1875 36.0625C82.5208 35.3542 82.8542 34.6667 83.1875 34C83.5625 33.3333 84.0208 32.6458 84.5625 31.9375L85.5625 31.5C85.6875 31.4583 85.8333 31.4167 86 31.375C86.1667 31.2917 86.3542 31.25 86.5625 31.25L87.5 31.375C88.6667 30.8333 89.6875 30.0833 90.5625 29.125C91.4375 28.125 92.3333 26.9375 93.25 25.5625L93.875 24.6875L94.6875 25.1875C94.8958 25.3125 95.1875 25.4375 95.5625 25.5625C95.9375 25.6458 96.3333 25.75 96.75 25.875C97.5 26.0417 98.2083 26.2292 98.875 26.4375C99.5417 26.6458 100.083 26.9583 100.5 27.375C100.75 28.0417 100.896 28.5417 100.938 28.875C100.979 29.2083 101.042 29.5417 101.125 29.875C101.25 30.5833 101.354 31.2917 101.438 32C101.562 32.7083 101.646 33.5 101.688 34.375C101.896 35.0833 102.062 35.7917 102.188 36.5C102.354 37.1667 102.5 37.8542 102.625 38.5625C102.833 39.5625 103.042 40.5417 103.25 41.5C103.458 42.4167 103.729 43.2917 104.062 44.125C104.396 44.125 104.604 44.1458 104.688 44.1875C104.896 44.1042 105.104 44.0417 105.312 44C105.562 43.9583 105.833 43.9167 106.125 43.875L106.812 43.8125L107.062 44.4375C107.104 44.6458 107.312 44.8542 107.688 45.0625C108.229 45.1042 108.625 45.2292 108.875 45.4375C109.125 45.6042 109.354 45.7917 109.562 46C109.729 46.1667 109.896 46.2917 110.062 46.375L111 46.75L110.5 47.6875C110.083 48.4375 109.479 49.1667 108.688 49.875C107.938 50.5417 107.083 51.1042 106.125 51.5625C106.167 51.8125 106.188 52.0625 106.188 52.3125C106.229 52.5208 106.292 52.75 106.375 53C106.5 53.7083 106.604 54.4375 106.688 55.1875C106.771 55.9375 106.771 56.7083 106.688 57.5L106.562 57.75ZM88.5 46.9375C89.75 46.8542 90.875 46.7708 91.875 46.6875C92.9167 46.5625 94.0625 46.375 95.3125 46.125C95.0208 44.875 94.7083 43.5833 94.375 42.25C94.0417 40.875 93.6875 39.5208 93.3125 38.1875L92.9375 38.8125C92.1042 39.6875 91.2917 40.6667 90.5 41.75C89.75 42.8333 89.1042 43.8542 88.5625 44.8125C88.3125 45.1875 88.0625 45.5625 87.8125 45.9375C87.5625 46.3125 87.3333 46.6875 87.125 47.0625C87.375 47.0208 87.6042 47 87.8125 47C88.0625 47 88.2917 46.9792 88.5 46.9375Z"
     fill="black"
     id="path12" />
  <path
     d="M123.938 58.625C124.146 59.875 124.062 60.8542 123.688 61.5625C123.354 62.2708 122.854 62.7917 122.188 63.125C121.562 63.5 120.833 63.7083 120 63.75C119.167 63.7917 118.375 63.75 117.625 63.625C117.208 63.0417 116.833 62.3125 116.5 61.4375C116.167 60.5625 115.854 59.6667 115.562 58.75C115.271 57.7917 115 56.8542 114.75 55.9375C114.542 55.0208 114.354 54.2083 114.188 53.5C114.396 53 114.521 52.4375 114.562 51.8125C114.646 51.1458 114.688 50.4792 114.688 49.8125C114.729 49.1458 114.75 48.4792 114.75 47.8125C114.792 47.1042 114.854 46.4375 114.938 45.8125C115.229 44.0625 115.646 42.3958 116.188 40.8125C116.771 39.2292 117.229 37.5833 117.562 35.875C117.646 35.5 117.604 35.1458 117.438 34.8125C117.312 34.4792 117.292 34.1667 117.375 33.875C117.417 33.7083 117.542 33.6042 117.75 33.5625C117.958 33.4792 118.083 33.3333 118.125 33.125C118.25 32.6667 118.271 32.2917 118.188 32C118.146 31.7083 118.229 31.3542 118.438 30.9375C118.646 30.6042 118.896 30.125 119.188 29.5C119.521 28.8333 119.646 28.1458 119.562 27.4375C119.938 27.1875 120.292 26.8958 120.625 26.5625C120.958 26.2292 121.292 25.9375 121.625 25.6875C122 25.3958 122.396 25.1458 122.812 24.9375C123.271 24.7292 123.812 24.625 124.438 24.625C124.771 25.0417 124.979 25.5 125.062 26C125.188 26.5 125.292 27 125.375 27.5C125.5 28 125.667 28.4792 125.875 28.9375C126.083 29.3542 126.438 29.6875 126.938 29.9375C126.938 30.2708 126.938 30.6875 126.938 31.1875C126.938 31.6875 126.958 32.1875 127 32.6875C127.042 33.1458 127.125 33.5833 127.25 34C127.417 34.375 127.667 34.625 128 34.75C127.25 36.75 126.542 38.7292 125.875 40.6875C125.25 42.6458 124.729 44.625 124.312 46.625C123.896 48.5833 123.625 50.5625 123.5 52.5625C123.417 54.5625 123.562 56.5833 123.938 58.625Z"
     fill="black"
     id="path14" />
  <path
     d="M144 51.625C143.625 51.7083 143.354 51.9375 143.188 52.3125C143.021 52.6458 142.854 53 142.688 53.375C142.562 53.75 142.417 54.1042 142.25 54.4375C142.125 54.7292 141.917 54.875 141.625 54.875C141.583 55.2083 141.458 55.5 141.25 55.75C141.083 56 140.917 56.2708 140.75 56.5625C140.583 56.8125 140.458 57.1042 140.375 57.4375C140.292 57.7292 140.333 58.0833 140.5 58.5C140.167 58.75 139.958 59.1042 139.875 59.5625C139.792 60.0208 139.688 60.4583 139.562 60.875C139.479 61.2917 139.312 61.6458 139.062 61.9375C138.812 62.2292 138.354 62.3542 137.688 62.3125C137.562 62.4792 137.542 62.5833 137.625 62.625C137.708 62.6667 137.771 62.8125 137.812 63.0625C137.354 62.9792 137 63 136.75 63.125C136.542 63.2917 136.271 63.3958 135.938 63.4375C135.146 63.1875 134.479 62.75 133.938 62.125C133.438 61.5 132.979 60.8125 132.562 60.0625C132.188 59.2708 131.833 58.4792 131.5 57.6875C131.208 56.8958 130.917 56.2083 130.625 55.625C130.75 55.1667 130.771 54.7292 130.688 54.3125C130.604 53.8542 130.458 53.4792 130.25 53.1875C132.292 48.8542 134.521 44.2292 136.938 39.3125C139.354 34.3958 141.646 29.5417 143.812 24.75C144.771 25.125 145.708 25.5625 146.625 26.0625C147.583 26.5208 148.438 27.0625 149.188 27.6875C149.979 28.3125 150.646 29.0417 151.188 29.875C151.729 30.6667 152.083 31.5625 152.25 32.5625C152.167 32.8125 152.062 32.9167 151.938 32.875C151.854 32.7917 151.771 32.8125 151.688 32.9375C151.854 33.1458 151.938 33.2917 151.938 33.375C151.979 33.4583 151.979 33.5417 151.938 33.625C151.938 33.7083 151.938 33.8333 151.938 34C151.938 34.125 152 34.3125 152.125 34.5625C151.958 34.5208 151.833 34.5417 151.75 34.625C151.708 34.7083 151.583 34.7083 151.375 34.625C151.542 35.0833 151.583 35.4583 151.5 35.75C151.458 36.0417 151.375 36.3125 151.25 36.5625C151.125 36.7708 151.021 37.0208 150.938 37.3125C150.854 37.5625 150.875 37.8958 151 38.3125C150.875 38.3125 150.771 38.3542 150.688 38.4375C150.646 38.4792 150.604 38.5417 150.562 38.625C150.521 38.6667 150.458 38.7292 150.375 38.8125C150.333 38.8542 150.25 38.8542 150.125 38.8125C150.25 39.7292 150.292 40.6458 150.25 41.5625C150.208 42.4792 150.167 43.4167 150.125 44.375C150.125 45.2917 150.146 46.2708 150.188 47.3125C150.229 48.3125 150.375 49.3542 150.625 50.4375C152.125 49.5625 153.312 48.4375 154.188 47.0625C155.104 45.6875 155.833 44.1458 156.375 42.4375C156.958 40.7292 157.396 38.8958 157.688 36.9375C157.979 34.9792 158.292 32.9792 158.625 30.9375C159 30.5625 159.292 30.1042 159.5 29.5625C159.708 29.0208 159.896 28.4583 160.062 27.875C160.229 27.25 160.396 26.6458 160.562 26.0625C160.729 25.4375 160.938 24.875 161.188 24.375C161.812 24.4583 162.333 24.6667 162.75 25C163.208 25.2917 163.625 25.625 164 26C164.375 26.3333 164.771 26.6667 165.188 27C165.604 27.2917 166.125 27.4792 166.75 27.5625C167.25 28.2708 167.708 28.9583 168.125 29.625C168.542 30.2917 168.812 31 168.938 31.75C168.729 32.0833 168.562 32.4583 168.438 32.875C168.354 33.2917 168.25 33.7083 168.125 34.125C168 34.5417 167.833 34.9375 167.625 35.3125C167.417 35.6458 167.125 35.9375 166.75 36.1875C166.625 37.2708 166.458 38.2708 166.25 39.1875C166.083 40.0625 165.896 40.9375 165.688 41.8125C165.521 42.6875 165.375 43.6042 165.25 44.5625C165.125 45.4792 165.083 46.5 165.125 47.625C164.792 48.5833 164.438 49.6042 164.062 50.6875C163.688 51.7708 163.396 52.75 163.188 53.625C162.521 54.1667 162 54.8125 161.625 55.5625C161.25 56.3125 160.854 57.0625 160.438 57.8125C160.271 57.9792 160.167 58.0208 160.125 57.9375C160.083 57.8542 159.938 57.7917 159.688 57.75C159.729 57.9167 159.729 58.0417 159.688 58.125C159.646 58.2083 159.583 58.2917 159.5 58.375C159.458 58.4167 159.417 58.5 159.375 58.625C159.375 58.75 159.417 58.9167 159.5 59.125C158.917 59.375 158.396 59.7292 157.938 60.1875C157.479 60.6458 156.979 61.0625 156.438 61.4375C155.938 61.8125 155.312 62.0625 154.562 62.1875C153.854 62.3125 152.917 62.1667 151.75 61.75C150.042 60.5 148.521 59.0625 147.188 57.4375C145.896 55.8125 144.833 53.875 144 51.625Z"
     fill="black"
     id="path16" />
  <path
     d="M168.312 34.875C168.604 34 169.062 33.25 169.688 32.625C170.354 32 171.062 31.4792 171.812 31.0625C172.604 30.6042 173.417 30.2292 174.25 29.9375C175.083 29.6458 175.875 29.3958 176.625 29.1875C178.292 28.4792 180.062 27.8125 181.938 27.1875C183.854 26.5208 185.792 25.9375 187.75 25.4375C189.75 24.9375 191.792 24.625 193.875 24.5C195.958 24.3333 198.146 24.5833 200.438 25.25C200.562 25.6667 200.75 26.0625 201 26.4375C201.25 26.8125 201.5 27.1875 201.75 27.5625C202.042 27.9375 202.292 28.3125 202.5 28.6875C202.708 29.0208 202.833 29.375 202.875 29.75C203.292 30.125 203.625 30.5417 203.875 31C204.125 31.4167 204.167 31.9792 204 32.6875C203.583 33.0208 203.167 33.3333 202.75 33.625C202.375 33.875 201.958 34.1042 201.5 34.3125C199.958 33.9375 198.396 33.8125 196.812 33.9375C195.229 34.0625 193.812 34.1667 192.562 34.25C192.188 33.875 191.729 33.6875 191.188 33.6875C190.688 33.6875 190.146 33.7708 189.562 33.9375C189.021 34.1042 188.458 34.2708 187.875 34.4375C187.333 34.6042 186.812 34.6458 186.312 34.5625C185.896 34.8958 185.375 35.125 184.75 35.25C184.167 35.3333 183.521 35.4167 182.812 35.5C182.771 35.7083 182.812 35.8542 182.938 35.9375C183.062 35.9792 183.083 36.1042 183 36.3125C183.25 36.6042 183.562 36.8125 183.938 36.9375C184.354 37.0625 184.771 37.1875 185.188 37.3125C185.646 37.4375 186.042 37.6042 186.375 37.8125C186.708 37.9792 186.938 38.2708 187.062 38.6875C187.688 38.6875 188.229 38.8333 188.688 39.125C189.146 39.4167 189.521 39.7708 189.812 40.1875C190.104 40.6042 190.312 41.0625 190.438 41.5625C190.604 42.0208 190.688 42.4375 190.688 42.8125C190.812 43.1458 190.958 43.2917 191.125 43.25C191.292 43.2083 191.479 43.2917 191.688 43.5C191.812 44.0417 192.125 44.6042 192.625 45.1875C193.125 45.7292 193.521 46.3333 193.812 47C193.896 48.0417 193.958 48.9792 194 49.8125C194.042 50.6042 193.896 51.4167 193.562 52.25C192.938 53.7917 192.062 55.1667 190.938 56.375C189.854 57.5833 188.604 58.6667 187.188 59.625C185.812 60.5417 184.333 61.3333 182.75 62C181.167 62.6667 179.625 63.2292 178.125 63.6875C177.958 63.6458 177.792 63.6458 177.625 63.6875C177.458 63.7292 177.417 63.625 177.5 63.375C177.167 63.6667 176.792 63.8542 176.375 63.9375C176 64.0208 175.583 64.0417 175.125 64C174.667 64 174.188 63.9792 173.688 63.9375C173.229 63.8958 172.792 63.9167 172.375 64C172.083 63.7083 171.812 63.4167 171.562 63.125C171.354 62.875 171.188 62.5417 171.062 62.125C170.854 62.125 170.75 62.0208 170.75 61.8125C170.792 61.6042 170.729 61.5 170.562 61.5C170.812 61.0833 170.917 60.8542 170.875 60.8125C170.875 60.7292 170.812 60.6667 170.688 60.625C170.604 60.5833 170.521 60.5417 170.438 60.5C170.354 60.4167 170.333 60.3125 170.375 60.1875C170.542 59.8542 170.604 59.4792 170.562 59.0625C170.521 58.6042 170.479 58.1458 170.438 57.6875C170.396 57.2292 170.417 56.7917 170.5 56.375C170.625 55.9583 170.938 55.625 171.438 55.375C172.854 55.5417 174.188 55.5 175.438 55.25C176.729 54.9583 177.938 54.5625 179.062 54.0625C180.188 53.5625 181.25 53.0208 182.25 52.4375C183.292 51.8542 184.312 51.3333 185.312 50.875C185.438 50.5 185.604 50.1875 185.812 49.9375C186.062 49.6875 186.312 49.4583 186.562 49.25C186.812 49.0417 187.042 48.8125 187.25 48.5625C187.458 48.3125 187.604 48 187.688 47.625C187.729 47.3333 187.646 47.1667 187.438 47.125C187.271 47.0417 187.188 46.875 187.188 46.625L186.5 46.4375C185.708 45.9792 184.812 45.6042 183.812 45.3125C182.812 44.9792 181.958 44.625 181.25 44.25C180.792 44.5 180.354 44.5625 179.938 44.4375C179.562 44.3125 179.062 44.1875 178.438 44.0625C177.021 43.9792 175.646 43.8333 174.312 43.625C173.021 43.4167 171.771 43.0417 170.562 42.5C170.479 42.2917 170.375 42.1042 170.25 41.9375C170.125 41.7708 169.896 41.7292 169.562 41.8125C169.312 41.4792 169.062 41.1667 168.812 40.875C168.562 40.5417 168.333 40.1875 168.125 39.8125C168.208 39.3125 168.271 38.8958 168.312 38.5625C168.354 38.1875 168.229 37.8333 167.938 37.5C168.104 36.9583 168.229 36.5208 168.312 36.1875C168.396 35.8542 168.396 35.4167 168.312 34.875Z"
     fill="black"
     id="path18" />
  <path
     d="M206.562 124.875C206.229 124.542 205.979 124.146 205.812 123.688C205.688 123.229 205.354 122.854 204.812 122.562C204.729 121.938 204.604 121.229 204.438 120.438C204.312 119.604 204.167 118.771 204 117.938C203.875 117.062 203.771 116.208 203.688 115.375C203.646 114.5 203.688 113.708 203.812 113C203.896 112.625 204.021 112.271 204.188 111.938C204.396 111.604 204.583 111.292 204.75 111C204.958 110.667 205.104 110.333 205.188 110C205.312 109.667 205.333 109.333 205.25 109C205.5 108.958 205.646 108.833 205.688 108.625C205.771 108.375 205.979 108.292 206.312 108.375C206.604 107.458 206.917 106.604 207.25 105.812C207.583 105.021 207.938 104.25 208.312 103.5C208.688 102.75 209.062 102 209.438 101.25C209.854 100.458 210.229 99.5833 210.562 98.625C209.854 97.9583 209.333 97.25 209 96.5C208.708 95.7083 208.479 94.9167 208.312 94.125C208.146 93.3333 208.021 92.5417 207.938 91.75C207.854 90.9167 207.688 90.0833 207.438 89.25C207.938 88.5 208.542 87.8958 209.25 87.4375C209.958 86.9375 210.729 86.5417 211.562 86.25C212.438 85.9167 213.375 85.6667 214.375 85.5C215.375 85.2917 216.438 85.0625 217.562 84.8125C219.562 84.1875 221.354 83.7083 222.938 83.375C224.521 83 226.062 82.7083 227.562 82.5C229.062 82.25 230.625 82.0417 232.25 81.875C233.875 81.6667 235.75 81.375 237.875 81C237.917 81.125 237.979 81.1875 238.062 81.1875C238.188 81.1875 238.333 81.1875 238.5 81.1875C238.625 81.4792 238.854 81.625 239.188 81.625C239.188 81.5 239.167 81.3958 239.125 81.3125C239.125 81.1875 239.125 81.0833 239.125 81C239.208 81 239.312 81.0208 239.438 81.0625C239.604 81.1042 239.729 81.1458 239.812 81.1875C239.938 81.2292 240.042 81.2292 240.125 81.1875C240.208 81.1042 240.229 80.9583 240.188 80.75C240.688 81.625 241.333 82.3542 242.125 82.9375C242.917 83.4792 243.792 83.9583 244.75 84.375C244.792 84.75 244.792 85.0208 244.75 85.1875C244.75 85.3542 244.729 85.5208 244.688 85.6875C244.646 85.8125 244.625 85.9792 244.625 86.1875C244.625 86.3542 244.667 86.6042 244.75 86.9375C244.083 88.0625 243.312 88.9375 242.438 89.5625C241.604 90.1875 240.708 90.6667 239.75 91C238.792 91.3333 237.771 91.5833 236.688 91.75C235.646 91.9167 234.562 92.1042 233.438 92.3125C232.354 92.4792 231.25 92.7292 230.125 93.0625C229 93.3958 227.896 93.8958 226.812 94.5625C226.479 94.4375 226.167 94.3958 225.875 94.4375C225.625 94.4375 225.354 94.4792 225.062 94.5625C224.771 94.6458 224.438 94.7292 224.062 94.8125C223.729 94.8958 223.312 94.8958 222.812 94.8125C222.479 95.1042 222.083 95.3125 221.625 95.4375C221.208 95.5625 220.771 95.6875 220.312 95.8125C220.521 96.2708 220.604 96.7292 220.562 97.1875C220.562 97.6458 220.625 98.0417 220.75 98.375C222.5 98.5417 224.438 98.5417 226.562 98.375C228.688 98.1667 230.771 98.0208 232.812 97.9375C232.854 98.1458 232.833 98.2917 232.75 98.375C232.667 98.4583 232.625 98.6042 232.625 98.8125C233 99.0625 233.354 99.375 233.688 99.75C234.021 100.125 234.354 100.5 234.688 100.875C235.062 101.208 235.438 101.5 235.812 101.75C236.188 101.958 236.625 102.042 237.125 102C237.333 102.417 237.479 102.854 237.562 103.312C237.646 103.771 237.583 104.25 237.375 104.75C236.542 105.292 235.729 105.854 234.938 106.438C234.146 106.979 233.312 107.479 232.438 107.938C231.604 108.396 230.688 108.771 229.688 109.062C228.688 109.354 227.604 109.479 226.438 109.438C226.229 109.438 226.042 109.438 225.875 109.438C225.75 109.438 225.583 109.354 225.375 109.188C224.958 109.396 224.396 109.479 223.688 109.438C223.021 109.354 222.458 109.417 222 109.625C221.417 109.417 220.729 109.312 219.938 109.312C219.188 109.312 218.521 109.208 217.938 109C217.188 110.083 216.479 111.229 215.812 112.438C215.146 113.604 214.562 114.854 214.062 116.188C215.771 116.438 217.188 116.542 218.312 116.5C219.438 116.458 220.5 116.375 221.5 116.25C222.5 116.125 223.521 116 224.562 115.875C225.646 115.75 226.958 115.708 228.5 115.75C229.542 115.25 230.729 114.917 232.062 114.75C233.438 114.542 234.708 114.25 235.875 113.875C236.292 114 236.646 114.25 236.938 114.625C237.229 114.958 237.5 115.312 237.75 115.688C238.042 116.021 238.333 116.312 238.625 116.562C238.917 116.812 239.292 116.896 239.75 116.812C239.958 117.021 240.083 117.271 240.125 117.562C240.208 117.854 240.271 118.125 240.312 118.375C240.396 118.625 240.5 118.833 240.625 119C240.75 119.125 240.979 119.167 241.312 119.125C240.521 120.75 239.625 122 238.625 122.875C237.667 123.75 236.562 124.438 235.312 124.938C234.104 125.396 232.729 125.75 231.188 126C229.688 126.208 228 126.479 226.125 126.812C225.667 126.896 225.271 126.896 224.938 126.812C224.646 126.688 224.333 126.625 224 126.625C222.833 126.833 221.438 127.042 219.812 127.25C218.229 127.458 216.625 127.542 215 127.5C213.375 127.458 211.812 127.25 210.312 126.875C208.812 126.5 207.562 125.833 206.562 124.875Z"
     fill="black"
     id="path20" />
  <path
     d="M264 116C263.958 116.583 263.812 117.146 263.562 117.688C263.354 118.188 263.083 118.688 262.75 119.188C262.417 119.646 262.042 120.104 261.625 120.562C261.25 120.979 260.875 121.354 260.5 121.688C260.625 122.229 260.625 122.646 260.5 122.938C260.417 123.188 260.396 123.583 260.438 124.125C259.812 125.792 258.854 126.896 257.562 127.438C256.312 128.021 255.125 127.917 254 127.125C253.542 126.792 253.146 126.375 252.812 125.875C252.521 125.333 252.104 125 251.562 124.875C251.688 124.167 251.625 123.458 251.375 122.75C251.125 122.042 250.854 121.667 250.562 121.625C250.438 120.75 250.25 119.812 250 118.812C249.75 117.812 249.521 116.812 249.312 115.812C249.104 114.771 248.917 113.771 248.75 112.812C248.625 111.812 248.583 110.896 248.625 110.062C248.667 109.646 248.583 109.271 248.375 108.938C248.208 108.604 248.083 108.208 248 107.75C247.833 106.792 247.771 105.792 247.812 104.75C247.896 103.667 247.938 102.646 247.938 101.688C247.938 100.771 247.875 99.7917 247.75 98.75C247.667 97.6667 247.583 96.6458 247.5 95.6875C247.417 94.6875 247.375 93.7917 247.375 93C247.375 92.1667 247.479 91.5208 247.688 91.0625C247.938 90.5625 248.271 90.1667 248.688 89.875C249.146 89.5417 249.562 89.1875 249.938 88.8125C250.854 88.8958 251.583 89.2708 252.125 89.9375C252.667 90.6042 252.875 91.2292 252.75 91.8125C253.625 92.3542 254.312 93.0625 254.812 93.9375C255.354 94.7708 255.771 95.7292 256.062 96.8125C256.396 97.8542 256.625 98.9792 256.75 100.188C256.875 101.354 256.979 102.521 257.062 103.688C257.146 104.812 257.229 105.896 257.312 106.938C257.396 107.979 257.562 108.875 257.812 109.625C259.354 107.417 260.646 105.458 261.688 103.75C262.729 102 263.792 100.333 264.875 98.75C265.958 97.1667 267.167 95.5625 268.5 93.9375C269.833 92.3125 271.562 90.4792 273.688 88.4375C274.104 88.4792 274.438 88.5625 274.688 88.6875C274.979 88.8125 275.229 88.9167 275.438 89C275.646 89.0833 275.896 89.1667 276.188 89.25C276.479 89.2917 276.875 89.2708 277.375 89.1875C277.542 89.6042 277.667 89.9167 277.75 90.125C277.833 90.2917 277.896 90.4792 277.938 90.6875C278.021 90.8542 278.104 91.0833 278.188 91.375C278.312 91.6667 278.5 92.0833 278.75 92.625C278.875 92.75 278.917 92.9167 278.875 93.125C278.833 93.3333 278.792 93.5417 278.75 93.75C278.75 93.9167 278.75 94.0417 278.75 94.125C278.75 94.2083 278.854 94.2083 279.062 94.125C278.938 94.7083 278.708 95.25 278.375 95.75C278.083 96.2083 277.958 96.7708 278 97.4375C277.042 98.6875 275.979 99.9792 274.812 101.312C273.688 102.646 272.542 104.021 271.375 105.438C270.25 106.854 269.167 108.354 268.125 109.938C267.083 111.479 266.188 113.104 265.438 114.812C265.229 114.812 265.062 114.875 264.938 115C264.854 115.125 264.771 115.271 264.688 115.438C264.604 115.562 264.5 115.688 264.375 115.812C264.292 115.938 264.167 116 264 116Z"
     fill="black"
     id="path22" />
  <path
     d="M309.125 91.8125C309.167 92.1042 309.167 92.3333 309.125 92.5C309.125 92.625 309.104 92.75 309.062 92.875C309.062 93 309.062 93.1458 309.062 93.3125C309.062 93.4375 309.104 93.6458 309.188 93.9375C308.312 95.3542 307.292 96.3333 306.125 96.875C305 97.375 303.771 97.75 302.438 98C301.104 98.2083 299.729 98.4375 298.312 98.6875C296.938 98.9375 295.562 99.4792 294.188 100.312C293.646 100.104 293.146 100.104 292.688 100.312C292.271 100.521 291.646 100.583 290.812 100.5C290.562 100.75 290.25 100.938 289.875 101.062C289.5 101.146 289.125 101.25 288.75 101.375C288.917 101.75 288.979 102.146 288.938 102.562C288.938 102.938 289 103.25 289.125 103.5C290.583 103.625 292.188 103.604 293.938 103.438C295.729 103.271 297.479 103.167 299.188 103.125C299.229 103.333 299.208 103.479 299.125 103.562C299.042 103.604 299.021 103.708 299.062 103.875C299.354 104.083 299.646 104.354 299.938 104.688C300.229 104.979 300.521 105.271 300.812 105.562C301.104 105.854 301.396 106.104 301.688 106.312C302.021 106.479 302.396 106.542 302.812 106.5C302.979 106.833 303.083 107.208 303.125 107.625C303.208 108 303.167 108.396 303 108.812C302.333 109.271 301.667 109.75 301 110.25C300.333 110.708 299.625 111.125 298.875 111.5C298.167 111.875 297.396 112.188 296.562 112.438C295.771 112.646 294.875 112.729 293.875 112.688C293.667 112.688 293.5 112.688 293.375 112.688C293.292 112.688 293.167 112.625 293 112.5C292.667 112.708 292.188 112.771 291.562 112.688C290.979 112.604 290.521 112.667 290.188 112.875C289.729 112.667 289.167 112.583 288.5 112.625C287.875 112.625 287.312 112.542 286.812 112.375C286.146 113.25 285.542 114.188 285 115.188C284.458 116.188 283.979 117.25 283.562 118.375C284.979 118.583 286.146 118.667 287.062 118.625C288.021 118.583 288.917 118.521 289.75 118.438C290.583 118.312 291.438 118.208 292.312 118.125C293.188 118 294.292 117.958 295.625 118C296.458 117.542 297.438 117.25 298.562 117.125C299.729 116.958 300.792 116.708 301.75 116.375C302.083 116.5 302.375 116.729 302.625 117.062C302.875 117.354 303.104 117.646 303.312 117.938C303.562 118.188 303.812 118.417 304.062 118.625C304.312 118.833 304.625 118.917 305 118.875C305.167 119.042 305.271 119.25 305.312 119.5C305.396 119.708 305.458 119.917 305.5 120.125C305.542 120.333 305.604 120.521 305.688 120.688C305.812 120.812 306 120.854 306.25 120.812C305.625 122.188 304.896 123.25 304.062 124C303.271 124.708 302.354 125.25 301.312 125.625C300.271 126 299.104 126.292 297.812 126.5C296.562 126.708 295.167 126.958 293.625 127.25C293.25 127.333 292.938 127.312 292.688 127.188C292.438 127.104 292.146 127.062 291.812 127.062C290.854 127.271 289.708 127.458 288.375 127.625C287.042 127.792 285.688 127.854 284.312 127.812C282.938 127.771 281.625 127.583 280.375 127.25C279.125 126.958 278.104 126.417 277.312 125.625C276.979 125.333 276.75 125 276.625 124.625C276.542 124.208 276.271 123.896 275.812 123.688C275.771 123.146 275.688 122.542 275.562 121.875C275.438 121.208 275.312 120.521 275.188 119.812C275.062 119.062 274.958 118.333 274.875 117.625C274.833 116.917 274.875 116.271 275 115.688C275.125 115.062 275.375 114.5 275.75 114C276.167 113.5 276.312 112.958 276.188 112.375C276.396 112.333 276.521 112.229 276.562 112.062C276.604 111.854 276.771 111.771 277.062 111.812C277.312 111.062 277.583 110.354 277.875 109.688C278.167 109.021 278.458 108.375 278.75 107.75C279.083 107.125 279.396 106.5 279.688 105.875C280.021 105.208 280.333 104.479 280.625 103.688C280.042 103.146 279.604 102.562 279.312 101.938C279.062 101.271 278.875 100.625 278.75 100C278.625 99.3333 278.521 98.6667 278.438 98C278.354 97.2917 278.208 96.5833 278 95.875C278.417 95.25 278.917 94.75 279.5 94.375C280.125 93.9583 280.792 93.625 281.5 93.375C282.208 93.125 282.979 92.9167 283.812 92.75C284.646 92.5833 285.521 92.3958 286.438 92.1875C288.104 91.6458 289.583 91.2292 290.875 90.9375C292.208 90.6458 293.5 90.4167 294.75 90.25C296.042 90.0417 297.375 89.8542 298.75 89.6875C300.125 89.5208 301.688 89.2708 303.438 88.9375C303.812 89.3125 304.167 89.5 304.5 89.5C304.667 89.125 304.854 89.0208 305.062 89.1875C305.312 89.3125 305.417 89.1875 305.375 88.8125C305.792 89.5208 306.312 90.125 306.938 90.625C307.604 91.0833 308.333 91.4792 309.125 91.8125Z"
     fill="black"
     id="path24" />
  <path
     d="M317.062 120.5C316.604 122.167 316.188 123.438 315.812 124.312C315.479 125.146 314.958 126.021 314.25 126.938C313.708 126.854 313.333 126.917 313.125 127.125C312.917 127.333 312.688 127.521 312.438 127.688C312.062 127.771 311.792 127.771 311.625 127.688C311.458 127.604 311.312 127.5 311.188 127.375C311.062 127.292 310.896 127.188 310.688 127.062C310.521 126.979 310.25 126.938 309.875 126.938C309.792 126.604 309.688 126.292 309.562 126C309.479 125.708 309.208 125.604 308.75 125.688C308.833 125.354 308.854 125.083 308.812 124.875C308.771 124.625 308.708 124.417 308.625 124.25C308.583 124.042 308.542 123.854 308.5 123.688C308.458 123.479 308.479 123.229 308.562 122.938C308.354 122.938 308.188 122.792 308.062 122.5C307.938 122.208 307.792 121.917 307.625 121.625C307.75 120.875 307.875 120.167 308 119.5C308.125 118.833 308.271 118.208 308.438 117.625C308.646 117.042 308.812 116.458 308.938 115.875C309.062 115.292 309 114.688 308.75 114.062C308.917 114.188 309.042 114.167 309.125 114C309.208 113.792 309.271 113.542 309.312 113.25C309.354 112.917 309.375 112.604 309.375 112.312C309.375 111.979 309.354 111.708 309.312 111.5C309.729 110.417 310.062 109.312 310.312 108.188C310.604 107.021 310.854 105.875 311.062 104.75C311.312 103.625 311.562 102.521 311.812 101.438C312.062 100.354 312.396 99.3542 312.812 98.4375C313.271 98.3542 313.771 98.4167 314.312 98.625C314.896 98.7917 315.25 99.0208 315.375 99.3125C316.458 98.4792 317.417 97.4792 318.25 96.3125C319.083 95.1042 319.938 93.9375 320.812 92.8125C321.688 91.6875 322.646 90.6875 323.688 89.8125C324.771 88.9375 326.125 88.4167 327.75 88.25C328.583 88.875 329.5 89.5208 330.5 90.1875C331.542 90.8125 332.396 91.6458 333.062 92.6875C333.396 92.8542 333.667 93.0417 333.875 93.25C334.125 93.4167 334.417 93.6042 334.75 93.8125V94.5625C335.25 95.0208 335.646 95.5625 335.938 96.1875C336.271 96.7708 336.562 97.4167 336.812 98.125C337.062 98.7917 337.312 99.4792 337.562 100.188C337.812 100.854 338.104 101.5 338.438 102.125C338.354 102.333 338.312 102.521 338.312 102.688C338.312 102.812 338.333 102.958 338.375 103.125C338.458 103.292 338.521 103.458 338.562 103.625C338.604 103.792 338.604 104.021 338.562 104.312C338.438 106.146 337.833 107.625 336.75 108.75C335.708 109.875 334.438 110.812 332.938 111.562C331.438 112.271 329.833 112.875 328.125 113.375C326.417 113.875 324.875 114.417 323.5 115C323.5 115.167 323.562 115.25 323.688 115.25C323.854 115.25 323.917 115.354 323.875 115.562C324.875 116.188 325.667 116.688 326.25 117.062C326.833 117.438 327.375 117.75 327.875 118C328.417 118.25 328.979 118.479 329.562 118.688C330.188 118.854 331.042 119.062 332.125 119.312C333.208 119.562 334.042 119.771 334.625 119.938C335.25 120.062 335.812 120.188 336.312 120.312C336.812 120.396 337.312 120.479 337.812 120.562C338.354 120.604 339.104 120.667 340.062 120.75C340.438 121.125 340.75 121.583 341 122.125C341.292 122.625 341.479 123.146 341.562 123.688C341.646 124.188 341.667 124.688 341.625 125.188C341.583 125.646 341.438 126.021 341.188 126.312C341.229 126.438 341.312 126.5 341.438 126.5C341.604 126.458 341.771 126.458 341.938 126.5C341.688 126.667 341.479 126.875 341.312 127.125C341.146 127.375 340.979 127.625 340.812 127.875C340.646 128.125 340.458 128.333 340.25 128.5C340.042 128.708 339.75 128.833 339.375 128.875C338.083 129.375 336.458 129.396 334.5 128.938C332.542 128.521 330.062 127.729 327.062 126.562C325.562 125.979 324.333 125.479 323.375 125.062C322.458 124.604 321.646 124.167 320.938 123.75C320.271 123.292 319.646 122.812 319.062 122.312C318.521 121.812 317.854 121.208 317.062 120.5ZM326 99.0625C325.542 99.7292 325.021 100.333 324.438 100.875C323.896 101.417 323.354 101.979 322.812 102.562C322.312 103.104 321.854 103.729 321.438 104.438C321.021 105.104 320.729 105.896 320.562 106.812C322.021 106.646 323.542 106.25 325.125 105.625C326.708 104.958 328.208 104.333 329.625 103.75C329.458 102.458 329 101.417 328.25 100.625C327.542 99.8333 326.792 99.3125 326 99.0625Z"
     fill="black"
     id="path26" />
  <path
     d="M360.375 110.625C360.083 110.875 359.833 111.188 359.625 111.562C359.417 111.896 359.208 112.25 359 112.625C358.792 113.083 358.562 113.521 358.312 113.938C358.062 114.354 357.75 114.729 357.375 115.062C357.167 115.688 356.958 116.188 356.75 116.562C356.542 116.896 356.208 117.292 355.75 117.75C355.333 119.417 354.354 121.229 352.812 123.188C352.771 123.562 352.646 123.938 352.438 124.312C352.271 124.646 352.083 124.979 351.875 125.312C351.792 125.438 351.708 125.583 351.625 125.75C351.542 125.875 351.479 125.979 351.438 126.062L351.312 126.688C351.104 127.021 350.875 127.312 350.625 127.562C350.375 127.812 350.146 128.042 349.938 128.25C349.854 128.375 349.708 128.542 349.5 128.75L348.562 129.125C345.521 128.708 343.667 127.083 343 124.25L343.062 123.625C343.146 123.417 343.208 123.208 343.25 123C343.333 122.75 343.417 122.5 343.5 122.25C343.667 121.667 343.854 121.083 344.062 120.5C344.312 119.917 344.667 119.396 345.125 118.938C345.208 118.646 345.396 118.188 345.688 117.562C345.979 116.896 346.479 115.917 347.188 114.625C347.771 113.625 348.229 112.833 348.562 112.25C348.896 111.667 349.167 111.208 349.375 110.875C348.958 110.208 348.458 109.604 347.875 109.062C347.333 108.021 346.854 107.021 346.438 106.062C346.062 105.104 345.771 104.25 345.562 103.5C345.521 102.958 345.458 102.5 345.375 102.125C345.292 101.75 345.208 101.354 345.125 100.938C345 100.479 344.896 100.021 344.812 99.5625C344.729 99.1042 344.688 98.625 344.688 98.125C344.479 97.8333 344.354 97.5417 344.312 97.25L344.438 96.625C344.562 96.3333 344.583 95.9583 344.5 95.5C344.417 95 344.312 94.5 344.188 94C344.104 93.5833 344 93.125 343.875 92.625C343.792 92.125 343.771 91.625 343.812 91.125C343.854 90.625 343.979 90.1667 344.188 89.75C344.438 89.2917 344.833 88.8958 345.375 88.5625L346.438 88.5C346.812 88.7083 347.167 88.9167 347.5 89.125C347.875 89.2917 348.229 89.4792 348.562 89.6875C349.021 89.8958 349.458 90.1042 349.875 90.3125C350.292 90.5208 350.729 90.7917 351.188 91.125L351.625 92L352.438 92.6875V93.375C352.479 93.5417 352.5 93.7708 352.5 94.0625C352.5 94.6042 352.583 94.9375 352.75 95.0625L353 95.8125C353 96.3958 353.062 96.9583 353.188 97.5C353.312 98 353.438 98.4792 353.562 98.9375C353.688 99.3958 353.812 99.875 353.938 100.375C354.062 100.875 354.083 101.417 354 102C354.25 101.875 354.458 101.729 354.625 101.562C354.708 101.479 354.792 101.417 354.875 101.375C354.958 101.333 355.042 101.271 355.125 101.188L358.812 96.1875L358.688 95.5625L360 94.3125C360.333 93.9792 360.646 93.6667 360.938 93.375C361.271 93.0833 361.542 92.7708 361.75 92.4375L362.438 91.9375C363.771 89.8542 365.667 88.5625 368.125 88.0625L369 87.9375L369.25 88.75C369.417 89.2083 369.75 89.625 370.25 90C370.792 90.375 371.354 90.7292 371.938 91.0625L372.5 91.4375C372.708 91.8542 372.812 92.1667 372.812 92.375C372.812 92.5833 372.792 92.7708 372.75 92.9375L373 93.5625C372.667 94.5625 372.25 95.2917 371.75 95.75C371.292 96.2083 370.833 96.625 370.375 97C370 97.3333 369.646 97.6458 369.312 97.9375C369.021 98.1875 368.792 98.5208 368.625 98.9375L368.188 99.4375C367.312 99.9375 366.75 100.604 366.5 101.438L366.312 102.188H365.562C365.521 102.188 365.417 102.271 365.25 102.438C365.125 102.562 364.917 102.917 364.625 103.5C364.333 103.917 364.125 104.188 364 104.312C363.875 104.438 363.771 104.542 363.688 104.625C363.646 104.792 363.583 104.958 363.5 105.125C363.458 105.25 363.396 105.417 363.312 105.625C362.771 106.167 362.438 106.583 362.312 106.875C362.188 107.125 362.042 107.417 361.875 107.75C361.708 108.083 361.542 108.417 361.375 108.75C361.25 109.042 361.021 109.354 360.688 109.688L360.375 110.625Z"
     fill="black"
     id="path28" />
  <path
     d="M400.5 108.25C400.458 108.75 400.5 109.229 400.625 109.688C400.75 110.146 400.896 110.604 401.062 111.062C401.271 111.479 401.458 111.917 401.625 112.375C401.792 112.833 401.917 113.292 402 113.75C402.083 114.333 402.083 114.979 402 115.688C401.917 116.354 401.771 117.021 401.562 117.688C401.354 118.312 401.083 118.896 400.75 119.438C400.417 119.938 400.021 120.312 399.562 120.562C398.979 121.312 398.271 121.896 397.438 122.312C396.604 122.729 395.833 123.229 395.125 123.812C394.667 124.104 394.146 124.312 393.562 124.438C393.021 124.562 392.458 124.688 391.875 124.812C391.417 125.062 390.875 125.333 390.25 125.625C389.625 125.875 388.979 126.125 388.312 126.375C387.646 126.583 386.979 126.75 386.312 126.875C385.646 126.958 385.062 126.979 384.562 126.938C383.312 127.396 382.083 127.688 380.875 127.812C379.708 127.979 378.333 127.896 376.75 127.562C375.25 127.771 373.854 127.708 372.562 127.375C371.312 127.042 370.188 126.521 369.188 125.812C368.229 125.062 367.375 124.188 366.625 123.188C365.917 122.146 365.333 121.062 364.875 119.938C364.542 117.562 364.625 115.417 365.125 113.5C365.625 111.542 366.333 109.75 367.25 108.125C368.208 106.458 369.292 104.938 370.5 103.562C371.708 102.146 372.875 100.771 374 99.4375C374.25 99.5208 374.438 99.5208 374.562 99.4375C374.729 99.3125 374.875 99.1667 375 99C375.125 98.7917 375.25 98.6042 375.375 98.4375C375.542 98.2708 375.729 98.1667 375.938 98.125C376.229 97.5 376.646 97.0417 377.188 96.75C377.771 96.4167 378.229 95.9583 378.562 95.375C378.938 95.2917 379.25 95.1667 379.5 95C379.75 94.8333 379.979 94.6458 380.188 94.4375C380.438 94.2292 380.688 94.0417 380.938 93.875C381.188 93.6667 381.479 93.5208 381.812 93.4375V92.75C382.562 92.4167 383.104 92.0417 383.438 91.625C383.812 91.1667 384.25 90.625 384.75 90C385.125 89.9583 385.417 89.9375 385.625 89.9375C385.875 89.9375 386.229 89.8958 386.688 89.8125C387.021 89.2292 387.312 88.7917 387.562 88.5C387.854 88.2083 388.271 87.8958 388.812 87.5625C389.312 87.8125 389.854 87.9792 390.438 88.0625C391.062 88.1458 391.604 88.4167 392.062 88.875C392.104 89.2917 392.229 89.625 392.438 89.875C392.646 90.0833 392.875 90.2917 393.125 90.5C393.375 90.6667 393.604 90.8542 393.812 91.0625C394.062 91.2708 394.229 91.5625 394.312 91.9375C394.479 91.9792 394.583 91.9583 394.625 91.875C394.708 91.7917 394.833 91.7708 395 91.8125C395.125 92.3958 395.271 92.7917 395.438 93C395.604 93.1667 395.771 93.5208 395.938 94.0625C395.729 94.4792 395.562 94.9167 395.438 95.375C395.354 95.7917 395.104 96.1042 394.688 96.3125C394.646 96.6042 394.729 96.7708 394.938 96.8125C395.146 96.8125 395.271 96.9167 395.312 97.125C395.354 97.5 395.292 97.7708 395.125 97.9375C396.125 99.5625 397.021 101.292 397.812 103.125C398.604 104.917 399.5 106.625 400.5 108.25ZM392.688 114.188C392.854 113.729 393.062 113.354 393.312 113.062C393.604 112.771 393.771 112.333 393.812 111.75C393.604 111.417 393.479 111.167 393.438 111C393.396 110.792 393.375 110.479 393.375 110.062C392.458 108.771 391.667 107.396 391 105.938C390.333 104.438 389.583 103.042 388.75 101.75C388.667 101.917 388.521 102.083 388.312 102.25C388.104 102.417 387.875 102.375 387.625 102.125C387.542 102.458 387.396 102.708 387.188 102.875C386.979 103 386.75 103.062 386.5 103.062C386.25 103.021 385.979 102.958 385.688 102.875C385.438 102.75 385.208 102.604 385 102.438C383.792 103.396 382.583 104.333 381.375 105.25C380.167 106.167 379.083 107.229 378.125 108.438C377.958 108.521 377.854 108.562 377.812 108.562C377.771 108.521 377.646 108.542 377.438 108.625C377.104 109.417 376.688 110.146 376.188 110.812C375.729 111.438 375.271 112.083 374.812 112.75C374.354 113.417 373.958 114.125 373.625 114.875C373.292 115.625 373.104 116.5 373.062 117.5C373.771 118.083 374.604 118.438 375.562 118.562C376.521 118.688 377.5 118.708 378.5 118.625C379.542 118.542 380.542 118.417 381.5 118.25C382.5 118.042 383.417 117.938 384.25 117.938C386 117.521 387.5 116.979 388.75 116.312C390 115.604 391.312 114.896 392.688 114.188Z"
     fill="black"
     id="path30" />
  <path
     d="M417.125 115.625C416.75 115.708 416.479 115.938 416.312 116.312C416.146 116.646 415.979 117 415.812 117.375C415.688 117.75 415.542 118.104 415.375 118.438C415.25 118.729 415.042 118.875 414.75 118.875C414.708 119.208 414.583 119.5 414.375 119.75C414.208 120 414.042 120.271 413.875 120.562C413.708 120.812 413.583 121.104 413.5 121.438C413.417 121.729 413.458 122.083 413.625 122.5C413.292 122.75 413.083 123.104 413 123.562C412.917 124.021 412.812 124.458 412.688 124.875C412.604 125.292 412.438 125.646 412.188 125.938C411.938 126.229 411.479 126.354 410.812 126.312C410.688 126.479 410.667 126.583 410.75 126.625C410.833 126.667 410.896 126.812 410.938 127.062C410.479 126.979 410.125 127 409.875 127.125C409.667 127.292 409.396 127.396 409.062 127.438C408.271 127.188 407.604 126.75 407.062 126.125C406.562 125.5 406.104 124.812 405.688 124.062C405.312 123.271 404.958 122.479 404.625 121.688C404.333 120.896 404.042 120.208 403.75 119.625C403.875 119.167 403.896 118.729 403.812 118.312C403.729 117.854 403.583 117.479 403.375 117.188C405.417 112.854 407.646 108.229 410.062 103.312C412.479 98.3958 414.771 93.5417 416.938 88.75C417.896 89.125 418.833 89.5625 419.75 90.0625C420.708 90.5208 421.562 91.0625 422.312 91.6875C423.104 92.3125 423.771 93.0417 424.312 93.875C424.854 94.6667 425.208 95.5625 425.375 96.5625C425.292 96.8125 425.188 96.9167 425.062 96.875C424.979 96.7917 424.896 96.8125 424.812 96.9375C424.979 97.1458 425.062 97.2917 425.062 97.375C425.104 97.4583 425.104 97.5417 425.062 97.625C425.062 97.7083 425.062 97.8333 425.062 98C425.062 98.125 425.125 98.3125 425.25 98.5625C425.083 98.5208 424.958 98.5417 424.875 98.625C424.833 98.7083 424.708 98.7083 424.5 98.625C424.667 99.0833 424.708 99.4583 424.625 99.75C424.583 100.042 424.5 100.312 424.375 100.562C424.25 100.771 424.146 101.021 424.062 101.312C423.979 101.562 424 101.896 424.125 102.312C424 102.312 423.896 102.354 423.812 102.438C423.771 102.479 423.729 102.542 423.688 102.625C423.646 102.667 423.583 102.729 423.5 102.812C423.458 102.854 423.375 102.854 423.25 102.812C423.375 103.729 423.417 104.646 423.375 105.562C423.333 106.479 423.292 107.417 423.25 108.375C423.25 109.292 423.271 110.271 423.312 111.312C423.354 112.312 423.5 113.354 423.75 114.438C425.25 113.562 426.438 112.438 427.312 111.062C428.229 109.688 428.958 108.146 429.5 106.438C430.083 104.729 430.521 102.896 430.812 100.938C431.104 98.9792 431.417 96.9792 431.75 94.9375C432.125 94.5625 432.417 94.1042 432.625 93.5625C432.833 93.0208 433.021 92.4583 433.188 91.875C433.354 91.25 433.521 90.6458 433.688 90.0625C433.854 89.4375 434.062 88.875 434.312 88.375C434.938 88.4583 435.458 88.6667 435.875 89C436.333 89.2917 436.75 89.625 437.125 90C437.5 90.3333 437.896 90.6667 438.312 91C438.729 91.2917 439.25 91.4792 439.875 91.5625C440.375 92.2708 440.833 92.9583 441.25 93.625C441.667 94.2917 441.938 95 442.062 95.75C441.854 96.0833 441.688 96.4583 441.562 96.875C441.479 97.2917 441.375 97.7083 441.25 98.125C441.125 98.5417 440.958 98.9375 440.75 99.3125C440.542 99.6458 440.25 99.9375 439.875 100.188C439.75 101.271 439.583 102.271 439.375 103.188C439.208 104.062 439.021 104.938 438.812 105.812C438.646 106.688 438.5 107.604 438.375 108.562C438.25 109.479 438.208 110.5 438.25 111.625C437.917 112.583 437.562 113.604 437.188 114.688C436.812 115.771 436.521 116.75 436.312 117.625C435.646 118.167 435.125 118.812 434.75 119.562C434.375 120.312 433.979 121.062 433.562 121.812C433.396 121.979 433.292 122.021 433.25 121.938C433.208 121.854 433.062 121.792 432.812 121.75C432.854 121.917 432.854 122.042 432.812 122.125C432.771 122.208 432.708 122.292 432.625 122.375C432.583 122.417 432.542 122.5 432.5 122.625C432.5 122.75 432.542 122.917 432.625 123.125C432.042 123.375 431.521 123.729 431.062 124.188C430.604 124.646 430.104 125.062 429.562 125.438C429.062 125.812 428.438 126.062 427.688 126.188C426.979 126.312 426.042 126.167 424.875 125.75C423.167 124.5 421.646 123.062 420.312 121.438C419.021 119.812 417.958 117.875 417.125 115.625Z"
     fill="black"
     id="path32" />
  <path
     d="M475.312 91.8125C475.354 92.1042 475.354 92.3333 475.312 92.5C475.312 92.625 475.292 92.75 475.25 92.875C475.25 93 475.25 93.1458 475.25 93.3125C475.25 93.4375 475.292 93.6458 475.375 93.9375C474.5 95.3542 473.479 96.3333 472.312 96.875C471.188 97.375 469.958 97.75 468.625 98C467.292 98.2083 465.917 98.4375 464.5 98.6875C463.125 98.9375 461.75 99.4792 460.375 100.312C459.833 100.104 459.333 100.104 458.875 100.312C458.458 100.521 457.833 100.583 457 100.5C456.75 100.75 456.438 100.938 456.062 101.062C455.688 101.146 455.312 101.25 454.938 101.375C455.104 101.75 455.167 102.146 455.125 102.562C455.125 102.938 455.188 103.25 455.312 103.5C456.771 103.625 458.375 103.604 460.125 103.438C461.917 103.271 463.667 103.167 465.375 103.125C465.417 103.333 465.396 103.479 465.312 103.562C465.229 103.604 465.208 103.708 465.25 103.875C465.542 104.083 465.833 104.354 466.125 104.688C466.417 104.979 466.708 105.271 467 105.562C467.292 105.854 467.583 106.104 467.875 106.312C468.208 106.479 468.583 106.542 469 106.5C469.167 106.833 469.271 107.208 469.312 107.625C469.396 108 469.354 108.396 469.188 108.812C468.521 109.271 467.854 109.75 467.188 110.25C466.521 110.708 465.812 111.125 465.062 111.5C464.354 111.875 463.583 112.188 462.75 112.438C461.958 112.646 461.062 112.729 460.062 112.688C459.854 112.688 459.688 112.688 459.562 112.688C459.479 112.688 459.354 112.625 459.188 112.5C458.854 112.708 458.375 112.771 457.75 112.688C457.167 112.604 456.708 112.667 456.375 112.875C455.917 112.667 455.354 112.583 454.688 112.625C454.062 112.625 453.5 112.542 453 112.375C452.333 113.25 451.729 114.188 451.188 115.188C450.646 116.188 450.167 117.25 449.75 118.375C451.167 118.583 452.333 118.667 453.25 118.625C454.208 118.583 455.104 118.521 455.938 118.438C456.771 118.312 457.625 118.208 458.5 118.125C459.375 118 460.479 117.958 461.812 118C462.646 117.542 463.625 117.25 464.75 117.125C465.917 116.958 466.979 116.708 467.938 116.375C468.271 116.5 468.562 116.729 468.812 117.062C469.062 117.354 469.292 117.646 469.5 117.938C469.75 118.188 470 118.417 470.25 118.625C470.5 118.833 470.812 118.917 471.188 118.875C471.354 119.042 471.458 119.25 471.5 119.5C471.583 119.708 471.646 119.917 471.688 120.125C471.729 120.333 471.792 120.521 471.875 120.688C472 120.812 472.188 120.854 472.438 120.812C471.812 122.188 471.083 123.25 470.25 124C469.458 124.708 468.542 125.25 467.5 125.625C466.458 126 465.292 126.292 464 126.5C462.75 126.708 461.354 126.958 459.812 127.25C459.438 127.333 459.125 127.312 458.875 127.188C458.625 127.104 458.333 127.062 458 127.062C457.042 127.271 455.896 127.458 454.562 127.625C453.229 127.792 451.875 127.854 450.5 127.812C449.125 127.771 447.812 127.583 446.562 127.25C445.312 126.958 444.292 126.417 443.5 125.625C443.167 125.333 442.938 125 442.812 124.625C442.729 124.208 442.458 123.896 442 123.688C441.958 123.146 441.875 122.542 441.75 121.875C441.625 121.208 441.5 120.521 441.375 119.812C441.25 119.062 441.146 118.333 441.062 117.625C441.021 116.917 441.062 116.271 441.188 115.688C441.312 115.062 441.562 114.5 441.938 114C442.354 113.5 442.5 112.958 442.375 112.375C442.583 112.333 442.708 112.229 442.75 112.062C442.792 111.854 442.958 111.771 443.25 111.812C443.5 111.062 443.771 110.354 444.062 109.688C444.354 109.021 444.646 108.375 444.938 107.75C445.271 107.125 445.583 106.5 445.875 105.875C446.208 105.208 446.521 104.479 446.812 103.688C446.229 103.146 445.792 102.562 445.5 101.938C445.25 101.271 445.062 100.625 444.938 100C444.812 99.3333 444.708 98.6667 444.625 98C444.542 97.2917 444.396 96.5833 444.188 95.875C444.604 95.25 445.104 94.75 445.688 94.375C446.312 93.9583 446.979 93.625 447.688 93.375C448.396 93.125 449.167 92.9167 450 92.75C450.833 92.5833 451.708 92.3958 452.625 92.1875C454.292 91.6458 455.771 91.2292 457.062 90.9375C458.396 90.6458 459.688 90.4167 460.938 90.25C462.229 90.0417 463.562 89.8542 464.938 89.6875C466.312 89.5208 467.875 89.2708 469.625 88.9375C470 89.3125 470.354 89.5 470.688 89.5C470.854 89.125 471.042 89.0208 471.25 89.1875C471.5 89.3125 471.604 89.1875 471.562 88.8125C471.979 89.5208 472.5 90.125 473.125 90.625C473.792 91.0833 474.521 91.4792 475.312 91.8125Z"
     fill="black"
     id="path34" />
</svg>
