<svg width="118" height="58" viewBox="0 0 118 58" fill="none" xmlns="http://www.w3.org/2000/svg">
<path d="M1.375 15.75C1.33333 15.4167 1.25 15.125 1.125 14.875C1.04167 14.5833 0.9375 14.2708 0.8125 13.9375C0.604167 13.4375 0.416667 12.8958 0.25 12.3125C0.0833333 11.7292 0 11.0417 0 10.25C0.0833333 9.83333 0.1875 9.54167 0.3125 9.375C0.4375 9.16667 0.5625 9 0.6875 8.875L0.9375 7.75H1.875C2.20833 7.79167 2.54167 7.8125 2.875 7.8125C3.25 7.8125 3.60417 7.8125 3.9375 7.8125C5.52083 7.8125 7.14583 7.75 8.8125 7.625C10.4792 7.5 12.1875 7.35417 13.9375 7.1875C15.8542 6.9375 17.9167 6.75 20.125 6.625C20.3333 6.16667 20.4583 5.875 20.5 5.75C20.5833 5.625 20.6667 5.47917 20.75 5.3125L21.4375 4.9375C22.3958 4.89583 23.0625 5.02083 23.4375 5.3125C23.8125 5.5625 24.1042 5.8125 24.3125 6.0625C25.3958 5.97917 26.5 5.875 27.625 5.75C28.75 5.58333 29.9167 5.41667 31.125 5.25C32.7917 5.04167 34.4792 4.83333 36.1875 4.625C37.8958 4.41667 39.5625 4.3125 41.1875 4.3125C41.8958 4.3125 42.5625 4.33333 43.1875 4.375C43.8125 4.41667 44.4167 4.47917 45 4.5625L45.75 5.125C45.9167 5.41667 46.125 5.6875 46.375 5.9375C46.625 6.1875 46.9167 6.4375 47.25 6.6875C47.875 7.1875 48.4792 7.8125 49.0625 8.5625C49.6875 9.3125 49.9167 10.4167 49.75 11.875L49.4375 12.5C49.2708 12.6667 49.0625 12.8333 48.8125 13L48.1875 13.8125H47.5C47.0833 13.8125 46.7708 13.8542 46.5625 13.9375C46.3542 13.9792 46.1042 14.0625 45.8125 14.1875C45.6458 14.2708 45.4583 14.3542 45.25 14.4375C45.0417 14.4792 44.8125 14.5417 44.5625 14.625C44.1042 14.5833 43.75 14.5625 43.5 14.5625C43.25 14.5625 42.9583 14.5625 42.625 14.5625C41.375 14.5625 40.0208 14.6458 38.5625 14.8125C37.1042 14.9792 35.6875 15.1667 34.3125 15.375C33.3125 15.5 32.3542 15.625 31.4375 15.75C30.5208 15.8333 29.6875 15.9167 28.9375 16C28.5208 17.0833 28.1458 18.0417 27.8125 18.875C27.4792 19.7083 27.125 20.5417 26.75 21.375C26.375 22.2083 26.0208 23.0625 25.6875 23.9375C25.3542 24.7708 25.0417 25.7083 24.75 26.75C24.25 27.5 23.8333 28.2292 23.5 28.9375C23.1667 29.6042 22.8958 30.375 22.6875 31.25C22.0625 31.9583 21.6042 32.7292 21.3125 33.5625C21.0625 34.3958 20.8333 35.1042 20.625 35.6875L20.375 36.625C20.0833 36.9167 19.8958 37.1458 19.8125 37.3125C19.7708 37.4792 19.6667 37.6667 19.5 37.875C19.375 38.4167 19.2083 38.9375 19 39.4375C18.9167 39.6458 18.8333 39.875 18.75 40.125C18.6667 40.3333 18.6458 40.5 18.6875 40.625C18.6042 41.0833 18.4792 41.4375 18.3125 41.6875C18.3125 41.9375 18.2917 42.1875 18.25 42.4375C18.2083 42.6875 18.1667 42.9375 18.125 43.1875C18.0417 43.4792 17.9792 43.75 17.9375 44C17.8958 44.2083 17.9167 44.4167 18 44.625C18.125 44.7917 18.25 44.9583 18.375 45.125C18.5 45.2917 18.6042 45.5 18.6875 45.75C18.7708 45.8333 18.875 45.8958 19 45.9375C19.125 45.9792 19.2292 46.0417 19.3125 46.125C19.6458 46.4167 19.9583 46.5833 20.25 46.625L20.875 47.375C21.125 48.875 20.8958 50.0417 20.1875 50.875C19.4375 51.8333 18.1875 52.3125 16.4375 52.3125L15.5625 52.25C15.2708 51.9583 15.1042 51.7708 15.0625 51.6875C14.6875 51.5208 14.375 51.375 14.125 51.25C13.875 51.1667 13.6458 50.9792 13.4375 50.6875C13.3542 50.6042 13.25 50.5625 13.125 50.5625C13 50.5208 12.8958 50.4583 12.8125 50.375C12.3958 50.25 12.0625 50.1042 11.8125 49.9375L11.125 49.5625C11.1667 49.1458 11.1875 48.8542 11.1875 48.6875C10.8542 48.2292 10.5833 47.7292 10.375 47.1875C10.2083 46.6458 10.0625 46.0833 9.9375 45.5C9.8125 45.0417 9.6875 44.625 9.5625 44.25C9.47917 43.875 9.33333 43.5417 9.125 43.25C9.04167 40.3333 9.3125 37.8958 9.9375 35.9375C10.5625 33.9375 11.25 32 12 30.125C12.4167 29.125 12.8125 28.1042 13.1875 27.0625C13.5625 26.0208 13.8958 24.9583 14.1875 23.875L14.875 23.1875C15.1667 22.9375 15.3542 22.7917 15.4375 22.75C15.4375 22.2083 15.5417 21.6875 15.75 21.1875C15.9583 20.6458 16.1875 20.1042 16.4375 19.5625C16.6042 19.2292 16.75 18.8958 16.875 18.5625C17.0417 18.2292 17.1458 17.9375 17.1875 17.6875C16.8958 17.6875 16.625 17.7083 16.375 17.75C16.1667 17.75 15.9375 17.7708 15.6875 17.8125C15.1458 17.9375 14.625 18 14.125 18C13.75 18 13.4792 17.9792 13.3125 17.9375C12.9792 18.1042 12.6667 18.2083 12.375 18.25C12.0833 18.25 11.7917 18.25 11.5 18.25H10C9.5 18.25 9.10417 18.3125 8.8125 18.4375C8.22917 18.4375 7.85417 18.4375 7.6875 18.4375C7.52083 18.4375 7.33333 18.4375 7.125 18.4375H5.625C5.29167 18.4375 4.91667 18.4167 4.5 18.375C4.08333 18.2917 3.64583 18.125 3.1875 17.875L2.75 17.375C2.5 16.9167 2.27083 16.6667 2.0625 16.625L1.375 16.4375V15.75Z" fill="black"/>
<path d="M79.625 48.875C79.2917 48.5417 79.0417 48.1458 78.875 47.6875C78.75 47.2292 78.4167 46.8542 77.875 46.5625C77.7917 45.9375 77.6667 45.2292 77.5 44.4375C77.375 43.6042 77.2292 42.7708 77.0625 41.9375C76.9375 41.0625 76.8333 40.2083 76.75 39.375C76.7083 38.5 76.75 37.7083 76.875 37C76.9583 36.625 77.0833 36.2708 77.25 35.9375C77.4583 35.6042 77.6458 35.2917 77.8125 35C78.0208 34.6667 78.1667 34.3333 78.25 34C78.375 33.6667 78.3958 33.3333 78.3125 33C78.5625 32.9583 78.7083 32.8333 78.75 32.625C78.8333 32.375 79.0417 32.2917 79.375 32.375C79.6667 31.4583 79.9792 30.6042 80.3125 29.8125C80.6458 29.0208 81 28.25 81.375 27.5C81.75 26.75 82.125 26 82.5 25.25C82.9167 24.4583 83.2917 23.5833 83.625 22.625C82.9167 21.9583 82.3958 21.25 82.0625 20.5C81.7708 19.7083 81.5417 18.9167 81.375 18.125C81.2083 17.3333 81.0833 16.5417 81 15.75C80.9167 14.9167 80.75 14.0833 80.5 13.25C81 12.5 81.6042 11.8958 82.3125 11.4375C83.0208 10.9375 83.7917 10.5417 84.625 10.25C85.5 9.91667 86.4375 9.66667 87.4375 9.5C88.4375 9.29167 89.5 9.0625 90.625 8.8125C92.625 8.1875 94.4167 7.70833 96 7.375C97.5833 7 99.125 6.70833 100.625 6.5C102.125 6.25 103.688 6.04167 105.312 5.875C106.938 5.66667 108.812 5.375 110.938 5C110.979 5.125 111.042 5.1875 111.125 5.1875C111.25 5.1875 111.396 5.1875 111.562 5.1875C111.688 5.47917 111.917 5.625 112.25 5.625C112.25 5.5 112.229 5.39583 112.188 5.3125C112.188 5.1875 112.188 5.08333 112.188 5C112.271 5 112.375 5.02083 112.5 5.0625C112.667 5.10417 112.792 5.14583 112.875 5.1875C113 5.22917 113.104 5.22917 113.188 5.1875C113.271 5.10417 113.292 4.95833 113.25 4.75C113.75 5.625 114.396 6.35417 115.188 6.9375C115.979 7.47917 116.854 7.95833 117.812 8.375C117.854 8.75 117.854 9.02083 117.812 9.1875C117.812 9.35417 117.792 9.52083 117.75 9.6875C117.708 9.8125 117.688 9.97917 117.688 10.1875C117.688 10.3542 117.729 10.6042 117.812 10.9375C117.146 12.0625 116.375 12.9375 115.5 13.5625C114.667 14.1875 113.771 14.6667 112.812 15C111.854 15.3333 110.833 15.5833 109.75 15.75C108.708 15.9167 107.625 16.1042 106.5 16.3125C105.417 16.4792 104.312 16.7292 103.188 17.0625C102.062 17.3958 100.958 17.8958 99.875 18.5625C99.5417 18.4375 99.2292 18.3958 98.9375 18.4375C98.6875 18.4375 98.4167 18.4792 98.125 18.5625C97.8333 18.6458 97.5 18.7292 97.125 18.8125C96.7917 18.8958 96.375 18.8958 95.875 18.8125C95.5417 19.1042 95.1458 19.3125 94.6875 19.4375C94.2708 19.5625 93.8333 19.6875 93.375 19.8125C93.5833 20.2708 93.6667 20.7292 93.625 21.1875C93.625 21.6458 93.6875 22.0417 93.8125 22.375C95.5625 22.5417 97.5 22.5417 99.625 22.375C101.75 22.1667 103.833 22.0208 105.875 21.9375C105.917 22.1458 105.896 22.2917 105.812 22.375C105.729 22.4583 105.688 22.6042 105.688 22.8125C106.062 23.0625 106.417 23.375 106.75 23.75C107.083 24.125 107.417 24.5 107.75 24.875C108.125 25.2083 108.5 25.5 108.875 25.75C109.25 25.9583 109.688 26.0417 110.188 26C110.396 26.4167 110.542 26.8542 110.625 27.3125C110.708 27.7708 110.646 28.25 110.438 28.75C109.604 29.2917 108.792 29.8542 108 30.4375C107.208 30.9792 106.375 31.4792 105.5 31.9375C104.667 32.3958 103.75 32.7708 102.75 33.0625C101.75 33.3542 100.667 33.4792 99.5 33.4375C99.2917 33.4375 99.1042 33.4375 98.9375 33.4375C98.8125 33.4375 98.6458 33.3542 98.4375 33.1875C98.0208 33.3958 97.4583 33.4792 96.75 33.4375C96.0833 33.3542 95.5208 33.4167 95.0625 33.625C94.4792 33.4167 93.7917 33.3125 93 33.3125C92.25 33.3125 91.5833 33.2083 91 33C90.25 34.0833 89.5417 35.2292 88.875 36.4375C88.2083 37.6042 87.625 38.8542 87.125 40.1875C88.8333 40.4375 90.25 40.5417 91.375 40.5C92.5 40.4583 93.5625 40.375 94.5625 40.25C95.5625 40.125 96.5833 40 97.625 39.875C98.7083 39.75 100.021 39.7083 101.562 39.75C102.604 39.25 103.792 38.9167 105.125 38.75C106.5 38.5417 107.771 38.25 108.938 37.875C109.354 38 109.708 38.25 110 38.625C110.292 38.9583 110.562 39.3125 110.812 39.6875C111.104 40.0208 111.396 40.3125 111.688 40.5625C111.979 40.8125 112.354 40.8958 112.812 40.8125C113.021 41.0208 113.146 41.2708 113.188 41.5625C113.271 41.8542 113.333 42.125 113.375 42.375C113.458 42.625 113.562 42.8333 113.688 43C113.812 43.125 114.042 43.1667 114.375 43.125C113.583 44.75 112.688 46 111.688 46.875C110.729 47.75 109.625 48.4375 108.375 48.9375C107.167 49.3958 105.792 49.75 104.25 50C102.75 50.2083 101.062 50.4792 99.1875 50.8125C98.7292 50.8958 98.3333 50.8958 98 50.8125C97.7083 50.6875 97.3958 50.625 97.0625 50.625C95.8958 50.8333 94.5 51.0417 92.875 51.25C91.2917 51.4583 89.6875 51.5417 88.0625 51.5C86.4375 51.4583 84.875 51.25 83.375 50.875C81.875 50.5 80.625 49.8333 79.625 48.875Z" fill="black"/>
<mask id="path-2-outside-1_617_27" maskUnits="userSpaceOnUse" x="39.04" y="0.375" width="40" height="58" fill="black">
<rect fill="white" x="39.04" y="0.375" width="40" height="58"/>
<path d="M73.29 21.5C73.54 22.2083 73.79 22.8333 74.04 23.375C74.29 23.9167 74.7692 24.3958 75.4775 24.8125C75.3109 25.7708 75.2692 26.5625 75.3525 27.1875C75.4359 27.8125 75.3317 28.5833 75.04 29.5C74.4567 30.125 73.7484 30.625 72.915 31C72.1234 31.375 71.29 31.7083 70.415 32C69.5817 32.25 68.7275 32.5208 67.8525 32.8125C67.0192 33.1042 66.2484 33.5 65.54 34C64.9984 35.6667 64.415 37.3125 63.79 38.9375C63.2067 40.5625 62.6859 42.3542 62.2275 44.3125C62.3109 44.5208 62.4567 44.6667 62.665 44.75C62.8734 44.8333 63.04 44.9583 63.165 45.125C62.9567 45.7083 62.9359 46.1875 63.1025 46.5625C63.2692 46.8958 63.4984 47.2083 63.79 47.5C64.0817 47.7917 64.3734 48.0833 64.665 48.375C64.9984 48.6667 65.2275 49 65.3525 49.375C65.1859 49.75 65.0817 50.125 65.04 50.5C64.9984 50.875 64.9567 51.25 64.915 51.625C64.915 52 64.8525 52.375 64.7275 52.75C64.6442 53.125 64.4567 53.5 64.165 53.875C63.3317 54.2083 62.4775 54.375 61.6025 54.375C60.7692 54.375 59.9984 54.4792 59.29 54.6875C58.415 54.4792 57.665 54.0417 57.04 53.375C56.4567 52.75 55.9775 52.0208 55.6025 51.1875C55.2275 50.3542 54.9359 49.5 54.7275 48.625C54.5192 47.75 54.3525 46.9792 54.2275 46.3125C54.4775 45.8542 54.415 45.6458 54.04 45.6875C53.8734 45.1042 53.8942 44.5417 54.1025 44C54.3109 43.4583 54.3525 43.0417 54.2275 42.75C54.3109 41.7083 54.4775 40.625 54.7275 39.5C54.9775 38.3333 55.2692 37.0208 55.6025 35.5625C55.0609 35.4375 54.4567 35.3333 53.79 35.25C53.165 35.125 52.54 35.0417 51.915 35C51.3317 34.9167 50.79 34.8542 50.29 34.8125C49.79 34.7708 49.415 34.75 49.165 34.75C48.54 34.5833 47.9984 34.3333 47.54 34C47.0817 33.625 46.665 33.2292 46.29 32.8125C45.915 32.3542 45.54 31.8958 45.165 31.4375C44.8317 30.9792 44.4775 30.5417 44.1025 30.125C43.9775 28.6667 43.7692 27.1875 43.4775 25.6875C43.1859 24.1875 42.915 22.7292 42.665 21.3125C42.415 19.8958 42.2275 18.5625 42.1025 17.3125C41.9775 16.0625 42.04 14.9375 42.29 13.9375C42.7067 13.3125 43.1234 12.7083 43.54 12.125C43.9567 11.5417 44.4567 11.0417 45.04 10.625C45.4984 10.75 45.8525 10.9792 46.1025 11.3125C46.3942 11.6042 46.6442 11.9375 46.8525 12.3125C47.1025 12.6458 47.3525 12.9792 47.6025 13.3125C47.8942 13.6042 48.2692 13.8125 48.7275 13.9375C48.8942 14.7292 49.1442 15.4792 49.4775 16.1875C49.8525 16.8542 50.1859 17.5417 50.4775 18.25C50.8109 18.9583 51.0817 19.7083 51.29 20.5C51.54 21.25 51.665 22.1042 51.665 23.0625C52.0817 23.6875 52.5192 24.0833 52.9775 24.25C53.4775 24.375 53.9984 24.4167 54.54 24.375C55.0817 24.3333 55.6234 24.2917 56.165 24.25C56.7484 24.2083 57.3317 24.2708 57.915 24.4375C58.04 24.2292 58.2484 24.125 58.54 24.125C58.8317 24.0833 59.0817 24 59.29 23.875C59.54 23.7917 59.665 23.5833 59.665 23.25C59.7067 22.9167 59.8942 22.7292 60.2275 22.6875C60.1442 21.9792 60.1442 21.2917 60.2275 20.625C60.3525 19.9167 60.4567 19.25 60.54 18.625C60.665 18 60.7275 17.3958 60.7275 16.8125C60.7692 16.2292 60.6859 15.6458 60.4775 15.0625C60.8942 14.2708 61.1442 13.3333 61.2275 12.25C61.3525 11.125 61.4775 10.0417 61.6025 9C61.7692 7.95833 62.04 7.02083 62.415 6.1875C62.8317 5.3125 63.54 4.70833 64.54 4.375C67.04 6.5 68.79 9.35417 69.79 12.9375C69.3734 14.6875 69.1234 16.3125 69.04 17.8125C68.9984 19.3125 68.9984 20.8125 69.04 22.3125C69.7484 22.1042 70.4775 21.9375 71.2275 21.8125C72.0192 21.6875 72.7067 21.5833 73.29 21.5Z"/>
</mask>
<path d="M73.29 21.5C73.54 22.2083 73.79 22.8333 74.04 23.375C74.29 23.9167 74.7692 24.3958 75.4775 24.8125C75.3109 25.7708 75.2692 26.5625 75.3525 27.1875C75.4359 27.8125 75.3317 28.5833 75.04 29.5C74.4567 30.125 73.7484 30.625 72.915 31C72.1234 31.375 71.29 31.7083 70.415 32C69.5817 32.25 68.7275 32.5208 67.8525 32.8125C67.0192 33.1042 66.2484 33.5 65.54 34C64.9984 35.6667 64.415 37.3125 63.79 38.9375C63.2067 40.5625 62.6859 42.3542 62.2275 44.3125C62.3109 44.5208 62.4567 44.6667 62.665 44.75C62.8734 44.8333 63.04 44.9583 63.165 45.125C62.9567 45.7083 62.9359 46.1875 63.1025 46.5625C63.2692 46.8958 63.4984 47.2083 63.79 47.5C64.0817 47.7917 64.3734 48.0833 64.665 48.375C64.9984 48.6667 65.2275 49 65.3525 49.375C65.1859 49.75 65.0817 50.125 65.04 50.5C64.9984 50.875 64.9567 51.25 64.915 51.625C64.915 52 64.8525 52.375 64.7275 52.75C64.6442 53.125 64.4567 53.5 64.165 53.875C63.3317 54.2083 62.4775 54.375 61.6025 54.375C60.7692 54.375 59.9984 54.4792 59.29 54.6875C58.415 54.4792 57.665 54.0417 57.04 53.375C56.4567 52.75 55.9775 52.0208 55.6025 51.1875C55.2275 50.3542 54.9359 49.5 54.7275 48.625C54.5192 47.75 54.3525 46.9792 54.2275 46.3125C54.4775 45.8542 54.415 45.6458 54.04 45.6875C53.8734 45.1042 53.8942 44.5417 54.1025 44C54.3109 43.4583 54.3525 43.0417 54.2275 42.75C54.3109 41.7083 54.4775 40.625 54.7275 39.5C54.9775 38.3333 55.2692 37.0208 55.6025 35.5625C55.0609 35.4375 54.4567 35.3333 53.79 35.25C53.165 35.125 52.54 35.0417 51.915 35C51.3317 34.9167 50.79 34.8542 50.29 34.8125C49.79 34.7708 49.415 34.75 49.165 34.75C48.54 34.5833 47.9984 34.3333 47.54 34C47.0817 33.625 46.665 33.2292 46.29 32.8125C45.915 32.3542 45.54 31.8958 45.165 31.4375C44.8317 30.9792 44.4775 30.5417 44.1025 30.125C43.9775 28.6667 43.7692 27.1875 43.4775 25.6875C43.1859 24.1875 42.915 22.7292 42.665 21.3125C42.415 19.8958 42.2275 18.5625 42.1025 17.3125C41.9775 16.0625 42.04 14.9375 42.29 13.9375C42.7067 13.3125 43.1234 12.7083 43.54 12.125C43.9567 11.5417 44.4567 11.0417 45.04 10.625C45.4984 10.75 45.8525 10.9792 46.1025 11.3125C46.3942 11.6042 46.6442 11.9375 46.8525 12.3125C47.1025 12.6458 47.3525 12.9792 47.6025 13.3125C47.8942 13.6042 48.2692 13.8125 48.7275 13.9375C48.8942 14.7292 49.1442 15.4792 49.4775 16.1875C49.8525 16.8542 50.1859 17.5417 50.4775 18.25C50.8109 18.9583 51.0817 19.7083 51.29 20.5C51.54 21.25 51.665 22.1042 51.665 23.0625C52.0817 23.6875 52.5192 24.0833 52.9775 24.25C53.4775 24.375 53.9984 24.4167 54.54 24.375C55.0817 24.3333 55.6234 24.2917 56.165 24.25C56.7484 24.2083 57.3317 24.2708 57.915 24.4375C58.04 24.2292 58.2484 24.125 58.54 24.125C58.8317 24.0833 59.0817 24 59.29 23.875C59.54 23.7917 59.665 23.5833 59.665 23.25C59.7067 22.9167 59.8942 22.7292 60.2275 22.6875C60.1442 21.9792 60.1442 21.2917 60.2275 20.625C60.3525 19.9167 60.4567 19.25 60.54 18.625C60.665 18 60.7275 17.3958 60.7275 16.8125C60.7692 16.2292 60.6859 15.6458 60.4775 15.0625C60.8942 14.2708 61.1442 13.3333 61.2275 12.25C61.3525 11.125 61.4775 10.0417 61.6025 9C61.7692 7.95833 62.04 7.02083 62.415 6.1875C62.8317 5.3125 63.54 4.70833 64.54 4.375C67.04 6.5 68.79 9.35417 69.79 12.9375C69.3734 14.6875 69.1234 16.3125 69.04 17.8125C68.9984 19.3125 68.9984 20.8125 69.04 22.3125C69.7484 22.1042 70.4775 21.9375 71.2275 21.8125C72.0192 21.6875 72.7067 21.5833 73.29 21.5Z" fill="#76BA99"/>
<path d="M73.29 21.5L76.119 20.5015L75.3005 18.1823L72.8658 18.5302L73.29 21.5ZM75.4775 24.8125L78.4332 25.3265L78.7891 23.2799L76.9986 22.2267L75.4775 24.8125ZM75.04 29.5L77.2332 31.547L77.694 31.0532L77.8988 30.4096L75.04 29.5ZM72.915 31L71.6839 28.2642L71.6572 28.2763L71.6308 28.2888L72.915 31ZM70.415 32L71.2771 34.8735L71.3206 34.8604L71.3637 34.846L70.415 32ZM67.8525 32.8125L66.9039 29.9665L66.8826 29.9735L66.8615 29.9809L67.8525 32.8125ZM65.54 34L63.81 31.5491L62.9952 32.1242L62.6869 33.0727L65.54 34ZM63.79 38.9375L60.99 37.8606L60.9779 37.8921L60.9665 37.9239L63.79 38.9375ZM62.2275 44.3125L59.3065 43.6288L59.0911 44.5491L59.4421 45.4267L62.2275 44.3125ZM63.165 45.125L65.9903 46.134L66.5327 44.6152L65.565 43.325L63.165 45.125ZM63.1025 46.5625L60.3611 47.7809L60.3888 47.8432L60.4193 47.9041L63.1025 46.5625ZM64.665 48.375L62.5437 50.4963L62.6144 50.567L62.6895 50.6327L64.665 48.375ZM65.3525 49.375L68.094 50.5934L68.5665 49.5302L68.1986 48.4263L65.3525 49.375ZM64.915 51.625L61.9334 51.2937L61.915 51.4588V51.625H64.915ZM64.7275 52.75L61.8815 51.8013L61.8325 51.9481L61.799 52.0992L64.7275 52.75ZM64.165 53.875L65.2792 56.6604L66.034 56.3585L66.5331 55.7168L64.165 53.875ZM59.29 54.6875L58.5952 57.6059L59.3712 57.7907L60.1365 57.5656L59.29 54.6875ZM57.04 53.375L54.8469 55.422L54.8514 55.4268L57.04 53.375ZM54.2275 46.3125L51.5939 44.8759L51.0819 45.8145L51.2789 46.8654L54.2275 46.3125ZM54.04 45.6875L51.1555 46.5117L51.8519 48.9491L54.3713 48.6692L54.04 45.6875ZM54.2275 42.75L51.2371 42.5108L51.1779 43.2501L51.4701 43.9318L54.2275 42.75ZM54.7275 39.5L57.6561 40.1508L57.6586 40.1397L57.6609 40.1286L54.7275 39.5ZM55.6025 35.5625L58.5271 36.231L59.1942 33.3125L56.2771 32.6393L55.6025 35.5625ZM53.79 35.25L53.2017 38.1917L53.3092 38.2132L53.4179 38.2268L53.79 35.25ZM51.915 35L51.4908 37.9698L51.6027 37.9858L51.7155 37.9934L51.915 35ZM49.165 34.75L48.3921 37.6487L48.7719 37.75H49.165V34.75ZM47.54 34L45.6403 36.3219L45.7064 36.376L45.7755 36.4262L47.54 34ZM46.29 32.8125L43.9682 34.7122L44.0129 34.7669L44.0602 34.8194L46.29 32.8125ZM45.165 31.4375L42.7388 33.202L42.7891 33.2711L42.8432 33.3372L45.165 31.4375ZM44.1025 30.125L41.1135 30.3812L41.1994 31.3839L41.8727 32.1319L44.1025 30.125ZM42.29 13.9375L39.7939 12.2734L39.5056 12.7058L39.3796 13.2099L42.29 13.9375ZM45.04 10.625L45.8294 7.73071L44.4553 7.35596L43.2963 8.1838L45.04 10.625ZM46.1025 11.3125L43.7025 13.1125L43.8305 13.2831L43.9812 13.4338L46.1025 11.3125ZM46.8525 12.3125L44.2301 13.7694L44.3296 13.9486L44.4525 14.1125L46.8525 12.3125ZM47.6025 13.3125L45.2025 15.1125L45.3305 15.2831L45.4812 15.4338L47.6025 13.3125ZM48.7275 13.9375L51.6632 13.3195L51.2855 11.5256L49.5169 11.0432L48.7275 13.9375ZM49.4775 16.1875L46.7631 17.4649L46.8094 17.5634L46.8628 17.6583L49.4775 16.1875ZM50.4775 18.25L47.7035 19.3922L47.7316 19.4606L47.7631 19.5274L50.4775 18.25ZM51.29 20.5L48.3888 21.2635L48.4134 21.357L48.444 21.4487L51.29 20.5ZM51.665 23.0625H48.665V23.9708L49.1689 24.7266L51.665 23.0625ZM52.9775 24.25L51.9523 27.0694L52.0988 27.1226L52.2499 27.1604L52.9775 24.25ZM56.165 24.25L55.9513 21.2576L55.9431 21.2582L55.9349 21.2588L56.165 24.25ZM57.915 24.4375L57.0909 27.3221L59.3036 27.9543L60.4875 25.981L57.915 24.4375ZM58.54 24.125V27.125H58.7532L58.9643 27.0948L58.54 24.125ZM59.29 23.875L58.3414 21.029L58.0289 21.1331L57.7466 21.3025L59.29 23.875ZM59.665 23.25L56.6882 22.8779L56.665 23.0632V23.25H59.665ZM60.2275 22.6875L60.5996 25.6643L63.555 25.2949L63.207 22.337L60.2275 22.6875ZM60.2275 20.625L57.2732 20.1036L57.2601 20.178L57.2507 20.2529L60.2275 20.625ZM60.54 18.625L57.5983 18.0367L57.5792 18.1321L57.5664 18.2285L60.54 18.625ZM60.7275 16.8125L57.7352 16.5988L57.7275 16.7055V16.8125H60.7275ZM60.4775 15.0625L57.8228 13.6653L57.2093 14.831L57.6523 16.0715L60.4775 15.0625ZM61.2275 12.25L58.2459 11.9187L58.2403 11.9692L58.2364 12.0199L61.2275 12.25ZM61.6025 9L58.6402 8.52603L58.6309 8.58414L58.6239 8.64256L61.6025 9ZM62.415 6.1875L59.7065 4.8977L59.6925 4.92691L59.6793 4.95641L62.415 6.1875ZM64.54 4.375L66.483 2.08918L65.195 0.9944L63.5914 1.52895L64.54 4.375ZM69.79 12.9375L72.7085 13.6324L72.8881 12.878L72.6796 12.1311L69.79 12.9375ZM69.04 17.8125L66.0447 17.6461L66.0424 17.6876L66.0412 17.7292L69.04 17.8125ZM69.04 22.3125L66.0412 22.3958L66.1494 26.2898L69.8865 25.1906L69.04 22.3125ZM71.2275 21.8125L70.7597 18.8492L70.747 18.8512L70.7343 18.8533L71.2275 21.8125ZM70.4611 22.4985C70.7345 23.2733 71.0187 23.9876 71.3162 24.6322L76.7639 22.1178C76.5614 21.679 76.3455 21.1434 76.119 20.5015L70.4611 22.4985ZM71.3162 24.6322C71.9026 25.9028 72.9147 26.7855 73.9565 27.3983L76.9986 22.2267C76.8187 22.1209 76.7349 22.046 76.7082 22.0193C76.6853 21.9963 76.7219 22.0268 76.7639 22.1178L71.3162 24.6322ZM72.5219 24.2985C72.3281 25.4131 72.2395 26.539 72.3789 27.584L78.3262 26.791C78.2989 26.586 78.2937 26.1286 78.4332 25.3265L72.5219 24.2985ZM72.3789 27.584C72.3781 27.5783 72.3882 27.653 72.3639 27.8326C72.3398 28.011 72.2862 28.2606 72.1813 28.5904L77.8988 30.4096C78.2607 29.2721 78.4906 28.024 78.3262 26.791L72.3789 27.584ZM72.8469 27.453C72.5537 27.7672 72.1794 28.0413 71.6839 28.2642L74.1461 33.7358C75.3174 33.2087 76.3598 32.4828 77.2332 31.547L72.8469 27.453ZM71.6308 28.2888C70.9537 28.6095 70.2329 28.8984 69.4664 29.154L71.3637 34.846C72.3472 34.5182 73.293 34.1405 74.1993 33.7112L71.6308 28.2888ZM69.553 29.1265C68.689 29.3857 67.8059 29.6658 66.9039 29.9665L68.8012 35.6585C69.6492 35.3759 70.4744 35.1143 71.2771 34.8735L69.553 29.1265ZM66.8615 29.9809C65.7702 30.3629 64.75 30.8856 63.81 31.5491L67.2701 36.4509C67.7468 36.1144 68.2682 35.8455 68.8436 35.6441L66.8615 29.9809ZM62.6869 33.0727C62.1615 34.6894 61.5959 36.2853 60.99 37.8606L66.5901 40.0144C67.2342 38.3397 67.8352 36.6439 68.3931 34.9273L62.6869 33.0727ZM60.9665 37.9239C60.3386 39.6728 59.7868 41.5765 59.3065 43.6288L65.1486 44.9962C65.5849 43.1319 66.0748 41.4522 66.6136 39.9511L60.9665 37.9239ZM59.4421 45.4267C59.8304 46.3973 60.5802 47.1472 61.5509 47.5354L63.7792 41.9646C64.0188 42.0604 64.2819 42.218 64.5207 42.4568C64.7595 42.6956 64.9171 42.9587 65.013 43.1983L59.4421 45.4267ZM61.5509 47.5354C61.2892 47.4308 60.9956 47.2324 60.765 46.925L65.565 43.325C65.0845 42.6842 64.4576 42.2359 63.7792 41.9646L61.5509 47.5354ZM60.3398 44.116C60.0015 45.0632 59.7542 46.4153 60.3611 47.7809L65.844 45.3441C65.9783 45.6463 65.9967 45.9065 65.9903 46.0522C65.9846 46.1851 65.9593 46.2208 65.9903 46.134L60.3398 44.116ZM60.4193 47.9041C60.7447 48.5549 61.1732 49.1258 61.6687 49.6213L65.9114 45.3787C65.8235 45.2908 65.7938 45.2367 65.7858 45.2209L60.4193 47.9041ZM61.6687 49.6213C61.6718 49.6244 61.6691 49.6217 61.6721 49.6247C61.6752 49.6278 61.6725 49.6251 61.6756 49.6282C61.6761 49.6287 61.6767 49.6293 61.6773 49.6299C61.6778 49.6304 61.6784 49.631 61.679 49.6316C61.6795 49.6321 61.6801 49.6327 61.6807 49.6333C61.6813 49.6339 61.6818 49.6344 61.6824 49.635C61.6854 49.638 61.6828 49.6354 61.6858 49.6384C61.6949 49.6475 61.6801 49.6327 61.6892 49.6418C61.6898 49.6424 61.6904 49.643 61.6909 49.6435C61.6915 49.6441 61.6921 49.6447 61.6926 49.6452C61.6932 49.6458 61.6938 49.6464 61.6944 49.647C61.6949 49.6475 61.6955 49.6481 61.6961 49.6487C61.7052 49.6578 61.6904 49.643 61.6995 49.6521C61.7001 49.6527 61.7006 49.6532 61.7012 49.6538C61.7018 49.6544 61.7023 49.6549 61.7029 49.6555C61.7035 49.6561 61.704 49.6566 61.7046 49.6572C61.7052 49.6578 61.7057 49.6583 61.7063 49.6589C61.7094 49.662 61.7067 49.6593 61.7097 49.6623C61.7103 49.6629 61.7109 49.6635 61.7114 49.664C61.712 49.6646 61.7126 49.6652 61.7132 49.6658C61.7162 49.6688 61.7135 49.6661 61.7166 49.6692C61.7171 49.6697 61.7177 49.6703 61.7183 49.6709C61.7188 49.6715 61.7194 49.672 61.72 49.6726C61.7206 49.6732 61.7211 49.6737 61.7217 49.6743C61.7223 49.6749 61.7228 49.6754 61.7234 49.676C61.7264 49.679 61.7238 49.6764 61.7268 49.6794C61.7299 49.6825 61.7272 49.6798 61.7302 49.6828C61.7308 49.6834 61.7314 49.684 61.732 49.6846C61.7325 49.6851 61.7331 49.6857 61.7337 49.6863C61.7342 49.6868 61.7348 49.6874 61.7354 49.688C61.7359 49.6885 61.7365 49.6891 61.7371 49.6897C61.7401 49.6927 61.7375 49.6901 61.7405 49.6931C61.7496 49.7022 61.7348 49.6874 61.7439 49.6965C61.753 49.7056 61.7382 49.6908 61.7473 49.6999C61.7479 49.7005 61.7485 49.7011 61.749 49.7016C61.7496 49.7022 61.7502 49.7028 61.7507 49.7034C61.7513 49.7039 61.7519 49.7045 61.7525 49.7051C61.753 49.7056 61.7536 49.7062 61.7542 49.7068C61.7547 49.7073 61.7553 49.7079 61.7559 49.7085C61.7564 49.709 61.757 49.7096 61.7576 49.7102C61.7637 49.7163 61.7549 49.7075 61.761 49.7136C61.764 49.7166 61.7614 49.714 61.7644 49.717C61.765 49.7176 61.7656 49.7182 61.7661 49.7187C61.7667 49.7193 61.7673 49.7199 61.7678 49.7204C61.7709 49.7235 61.7682 49.7208 61.7713 49.7239C61.7718 49.7244 61.7724 49.725 61.773 49.7256C61.7735 49.7261 61.7741 49.7267 61.7747 49.7273C61.7752 49.7278 61.7758 49.7284 61.7764 49.729C61.777 49.7296 61.7775 49.7301 61.7781 49.7307C61.7811 49.7337 61.7785 49.7311 61.7815 49.7341C61.7876 49.7402 61.7789 49.7315 61.7849 49.7375C61.7855 49.7381 61.7861 49.7387 61.7866 49.7392C61.7872 49.7398 61.7878 49.7404 61.7883 49.7409C61.7889 49.7415 61.7895 49.7421 61.7901 49.7427C61.7906 49.7432 61.7912 49.7438 61.7918 49.7444C61.7948 49.7474 61.7921 49.7447 61.7952 49.7478C61.8043 49.7569 61.7895 49.7421 61.7986 49.7512C61.7992 49.7518 61.7997 49.7523 61.8003 49.7529C61.8009 49.7535 61.8014 49.7541 61.802 49.7546C61.8026 49.7552 61.8032 49.7558 61.8037 49.7563C61.8043 49.7569 61.8049 49.7575 61.8054 49.758C61.8146 49.7672 61.7997 49.7523 61.8089 49.7615C61.8094 49.762 61.81 49.7626 61.8106 49.7632C61.8111 49.7637 61.8117 49.7643 61.8123 49.7649C61.8128 49.7654 61.8134 49.766 61.814 49.7666C61.8146 49.7672 61.8151 49.7677 61.8157 49.7683C61.8187 49.7713 61.8161 49.7687 61.8191 49.7717C61.8197 49.7723 61.8202 49.7729 61.8208 49.7734C61.8214 49.774 61.822 49.7746 61.8225 49.7751C61.8256 49.7782 61.8229 49.7755 61.8259 49.7785C61.8265 49.7791 61.8271 49.7797 61.8277 49.7803C61.8282 49.7808 61.8288 49.7814 61.8294 49.782C61.8299 49.7825 61.8305 49.7831 61.8311 49.7837C61.8316 49.7842 61.8322 49.7848 61.8328 49.7854C61.8358 49.7884 61.8332 49.7858 61.8362 49.7888C61.8423 49.7949 61.8335 49.7861 61.8396 49.7922C61.8402 49.7928 61.8408 49.7934 61.8413 49.7939C61.8419 49.7945 61.8425 49.7951 61.843 49.7956C61.8436 49.7962 61.8442 49.7968 61.8447 49.7973C61.8453 49.7979 61.8459 49.7985 61.8465 49.7991C61.8495 49.8021 61.8468 49.7994 61.8499 49.8025C61.859 49.8116 61.8442 49.7968 61.8533 49.8059C61.8654 49.818 61.8446 49.7972 61.8567 49.8093C61.8573 49.8099 61.8578 49.8104 61.8584 49.811C61.859 49.8116 61.8596 49.8122 61.8601 49.8127C61.8607 49.8133 61.8613 49.8139 61.8618 49.8144C61.8624 49.815 61.863 49.8156 61.8635 49.8161C61.8641 49.8167 61.8647 49.8173 61.8653 49.8179C61.8658 49.8184 61.8664 49.819 61.867 49.8196C61.873 49.8256 61.8643 49.8169 61.8704 49.823C61.8734 49.826 61.8708 49.8234 61.8738 49.8264C61.8744 49.827 61.8749 49.8275 61.8755 49.8281C61.8761 49.8287 61.8766 49.8292 61.8772 49.8298C61.8803 49.8329 61.8776 49.8302 61.8806 49.8332C61.8812 49.8338 61.8818 49.8344 61.8823 49.8349C61.8829 49.8355 61.8835 49.8361 61.8841 49.8367C61.8846 49.8372 61.8852 49.8378 61.8858 49.8384C61.8863 49.8389 61.8869 49.8395 61.8875 49.8401C61.8905 49.8431 61.8878 49.8405 61.8909 49.8435C61.8939 49.8465 61.8913 49.8439 61.8943 49.8469C61.8949 49.8475 61.8954 49.848 61.896 49.8486C61.8966 49.8492 61.8972 49.8498 61.8977 49.8503C61.8983 49.8509 61.8989 49.8515 61.8994 49.852C61.9 49.8526 61.9006 49.8532 61.9011 49.8537C61.9042 49.8568 61.9015 49.8541 61.9046 49.8572C61.9137 49.8663 61.8989 49.8515 61.908 49.8606C61.9085 49.8611 61.9091 49.8617 61.9097 49.8623C61.9103 49.8629 61.9108 49.8634 61.9114 49.864C61.912 49.8646 61.9125 49.8651 61.9131 49.8657C61.9137 49.8663 61.9142 49.8668 61.9148 49.8674C61.9239 49.8765 61.9091 49.8617 61.9182 49.8708C61.9188 49.8714 61.9194 49.872 61.9199 49.8725C61.9205 49.8731 61.9211 49.8737 61.9216 49.8743C61.9222 49.8748 61.9228 49.8754 61.9234 49.876C61.9239 49.8765 61.9245 49.8771 61.9251 49.8777C61.9281 49.8807 61.9254 49.878 61.9285 49.8811C61.9291 49.8817 61.9296 49.8822 61.9302 49.8828C61.9308 49.8834 61.9313 49.8839 61.9319 49.8845C61.9349 49.8875 61.9323 49.8849 61.9353 49.8879C61.9359 49.8885 61.9365 49.8891 61.937 49.8896C61.9376 49.8902 61.9382 49.8908 61.9387 49.8913C61.9393 49.8919 61.9399 49.8925 61.9404 49.893C61.941 49.8936 61.9416 49.8942 61.9422 49.8948C61.9452 49.8978 61.9425 49.8951 61.9456 49.8982C61.9517 49.9043 61.9429 49.8955 61.949 49.9016C61.9496 49.9022 61.9501 49.9027 61.9507 49.9033C61.9513 49.9039 61.9518 49.9044 61.9524 49.905C61.953 49.9056 61.9535 49.9062 61.9541 49.9067C61.9547 49.9073 61.9553 49.9079 61.9558 49.9084C61.9589 49.9115 61.9562 49.9088 61.9592 49.9118C61.9684 49.921 61.9535 49.9062 61.9627 49.9153C61.9748 49.9274 61.9539 49.9065 61.9661 49.9187C61.9667 49.9193 61.9672 49.9198 61.9678 49.9204C61.9684 49.921 61.9689 49.9215 61.9695 49.9221C61.9701 49.9227 61.9706 49.9232 61.9712 49.9238C61.9718 49.9244 61.9723 49.9249 61.9729 49.9255C61.9735 49.9261 61.9741 49.9267 61.9746 49.9272C61.9752 49.9278 61.9758 49.9284 61.9763 49.9289C61.9824 49.935 61.9737 49.9263 61.9798 49.9324C61.9828 49.9354 61.9801 49.9327 61.9832 49.9358C61.9837 49.9363 61.9843 49.9369 61.9849 49.9375C61.9855 49.9381 61.986 49.9386 61.9866 49.9392C61.9896 49.9422 61.987 49.9396 61.99 49.9426C61.9906 49.9432 61.9911 49.9437 61.9917 49.9443C61.9923 49.9449 61.9929 49.9455 61.9934 49.946C61.994 49.9466 61.9946 49.9472 61.9951 49.9477C61.9957 49.9483 61.9963 49.9489 61.9968 49.9494C61.9999 49.9525 61.9972 49.9498 62.0003 49.9529C62.0033 49.9559 62.0006 49.9532 62.0037 49.9563C62.0042 49.9569 62.0048 49.9574 62.0054 49.958C62.006 49.9586 62.0065 49.9591 62.0071 49.9597C62.0077 49.9603 62.0082 49.9608 62.0088 49.9614C62.0094 49.962 62.0099 49.9625 62.0105 49.9631C62.0136 49.9662 62.0109 49.9635 62.0139 49.9665C62.023 49.9756 62.0082 49.9608 62.0174 49.97C62.0179 49.9705 62.0185 49.9711 62.0191 49.9717C62.0196 49.9722 62.0202 49.9728 62.0208 49.9734C62.0213 49.9739 62.0219 49.9745 62.0225 49.9751C62.023 49.9756 62.0236 49.9762 62.0242 49.9768C62.0333 49.9859 62.0185 49.9711 62.0276 49.9802C62.0282 49.9808 62.0287 49.9813 62.0293 49.9819C62.0299 49.9825 62.0305 49.9831 62.031 49.9836C62.0316 49.9842 62.0322 49.9848 62.0327 49.9853C62.0333 49.9859 62.0339 49.9865 62.0344 49.987C62.0375 49.9901 62.0348 49.9874 62.0379 49.9905C62.0384 49.991 62.039 49.9916 62.0396 49.9922C62.0401 49.9927 62.0407 49.9933 62.0413 49.9939C62.0443 49.9969 62.0417 49.9943 62.0447 49.9973C62.0453 49.9979 62.0458 49.9984 62.0464 49.999C62.047 49.9996 62.0475 50.0001 62.0481 50.0007C62.0487 50.0013 62.0493 50.0019 62.0498 50.0024C62.0504 50.003 62.051 50.0036 62.0515 50.0041C62.0546 50.0072 62.0519 50.0045 62.0549 50.0076C62.061 50.0136 62.0523 50.0049 62.0584 50.011C62.0589 50.0115 62.0595 50.0121 62.0601 50.0127C62.0606 50.0132 62.0612 50.0138 62.0618 50.0144C62.0624 50.015 62.0629 50.0155 62.0635 50.0161C62.0641 50.0167 62.0646 50.0172 62.0652 50.0178C62.0682 50.0208 62.0656 50.0182 62.0686 50.0212C62.0777 50.0303 62.0629 50.0155 62.072 50.0246C62.0812 50.0338 62.0663 50.0189 62.0755 50.0281C62.076 50.0286 62.0766 50.0292 62.0772 50.0298C62.0777 50.0303 62.0783 50.0309 62.0789 50.0315C62.0794 50.032 62.08 50.0326 62.0806 50.0332C62.0812 50.0338 62.0817 50.0343 62.0823 50.0349C62.0823 50.0349 62.0857 50.0383 62.0857 50.0383C62.0918 50.0444 62.0831 50.0357 62.0891 50.0417C62.0922 50.0448 62.0895 50.0421 62.0925 50.0451C62.0931 50.0457 62.0937 50.0463 62.0943 50.0469C62.0948 50.0474 62.0954 50.048 62.096 50.0486C62.099 50.0516 62.0963 50.0489 62.0994 50.052C62.1 50.0526 62.1005 50.0531 62.1011 50.0537C62.1017 50.0543 62.1022 50.0548 62.1028 50.0554C62.1034 50.056 62.1039 50.0565 62.1045 50.0571C62.1051 50.0577 62.1056 50.0583 62.1062 50.0588C62.1093 50.0619 62.1066 50.0592 62.1096 50.0622C62.1157 50.0683 62.107 50.0596 62.1131 50.0657C62.1136 50.0662 62.1142 50.0668 62.1148 50.0674C62.1153 50.0679 62.1159 50.0685 62.1165 50.0691C62.117 50.0696 62.1176 50.0702 62.1182 50.0708C62.1188 50.0714 62.1193 50.0719 62.1199 50.0725C62.1229 50.0755 62.1203 50.0729 62.1233 50.0759C62.1324 50.085 62.1176 50.0702 62.1267 50.0793C62.1273 50.0799 62.1279 50.0805 62.1284 50.081C62.129 50.0816 62.1296 50.0822 62.1301 50.0827C62.1307 50.0833 62.1313 50.0839 62.1319 50.0845C62.1324 50.085 62.133 50.0856 62.1336 50.0862C62.1427 50.0953 62.1279 50.0805 62.137 50.0896C62.137 50.0896 62.1404 50.093 62.1404 50.093C62.141 50.0936 62.1415 50.0941 62.1421 50.0947C62.1427 50.0953 62.1432 50.0958 62.1438 50.0964C62.1469 50.0995 62.1442 50.0968 62.1472 50.0998C62.1478 50.1004 62.1484 50.101 62.1489 50.1015C62.1495 50.1021 62.1501 50.1027 62.1507 50.1033C62.1537 50.1063 62.151 50.1036 62.1541 50.1067C62.1546 50.1072 62.1552 50.1078 62.1558 50.1084C62.1563 50.109 62.1569 50.1095 62.1575 50.1101C62.1581 50.1107 62.1586 50.1112 62.1592 50.1118C62.1598 50.1124 62.1603 50.1129 62.1609 50.1135C62.1639 50.1165 62.1613 50.1139 62.1643 50.1169C62.1674 50.12 62.1647 50.1173 62.1677 50.1203C62.1683 50.1209 62.1689 50.1215 62.1695 50.1221C62.17 50.1226 62.1706 50.1232 62.1712 50.1238C62.1717 50.1243 62.1723 50.1249 62.1729 50.1255C62.1734 50.126 62.174 50.1266 62.1746 50.1272C62.1776 50.1302 62.175 50.1276 62.178 50.1306C62.1871 50.1397 62.1723 50.1249 62.1814 50.134C62.1936 50.1462 62.1727 50.1253 62.1848 50.1374C62.1854 50.138 62.186 50.1386 62.1865 50.1391C62.1871 50.1397 62.1877 50.1403 62.1882 50.1409C62.1888 50.1414 62.1894 50.142 62.19 50.1426C62.1905 50.1431 62.1911 50.1437 62.1917 50.1443C62.1917 50.1443 62.1951 50.1477 62.1951 50.1477C62.2012 50.1538 62.1924 50.145 62.1985 50.1511C62.2015 50.1541 62.1989 50.1515 62.2019 50.1545C62.2025 50.1551 62.2031 50.1557 62.2036 50.1562C62.2042 50.1568 62.2048 50.1574 62.2053 50.1579C62.2084 50.161 62.2057 50.1583 62.2088 50.1614C62.2093 50.1619 62.2099 50.1625 62.2105 50.1631C62.211 50.1636 62.2116 50.1642 62.2122 50.1648C62.2127 50.1653 62.2133 50.1659 62.2139 50.1665C62.2145 50.1671 62.215 50.1676 62.2156 50.1682C62.2186 50.1712 62.216 50.1686 62.219 50.1716C62.222 50.1747 62.2194 50.172 62.2224 50.175C62.223 50.1756 62.2236 50.1762 62.2241 50.1767C62.2247 50.1773 62.2253 50.1779 62.2258 50.1784C62.2264 50.179 62.227 50.1796 62.2276 50.1802C62.2281 50.1807 62.2287 50.1813 62.2293 50.1819C62.2323 50.1849 62.2296 50.1822 62.2327 50.1853C62.2418 50.1944 62.227 50.1796 62.2361 50.1887C62.2367 50.1893 62.2372 50.1898 62.2378 50.1904C62.2384 50.191 62.2389 50.1916 62.2395 50.1921C62.2401 50.1927 62.2407 50.1933 62.2412 50.1938C62.2418 50.1944 62.2424 50.195 62.2429 50.1955C62.2521 50.2047 62.2372 50.1898 62.2464 50.199C62.2469 50.1995 62.2475 50.2001 62.2481 50.2007C62.2486 50.2012 62.2492 50.2018 62.2498 50.2024C62.2503 50.2029 62.2509 50.2035 62.2515 50.2041C62.2521 50.2047 62.2526 50.2052 62.2532 50.2058C62.2562 50.2088 62.2536 50.2062 62.2566 50.2092C62.2572 50.2098 62.2577 50.2104 62.2583 50.2109C62.2589 50.2115 62.2595 50.2121 62.26 50.2126C62.2631 50.2157 62.2604 50.213 62.2634 50.216C62.264 50.2166 62.2646 50.2172 62.2652 50.2178C62.2657 50.2183 62.2663 50.2189 62.2669 50.2195C62.2674 50.22 62.268 50.2206 62.2686 50.2212C62.2691 50.2217 62.2697 50.2223 62.2703 50.2229C62.2733 50.2259 62.2707 50.2233 62.2737 50.2263C62.2767 50.2293 62.2741 50.2267 62.2771 50.2297C62.2777 50.2303 62.2783 50.2309 62.2788 50.2314C62.2794 50.232 62.28 50.2326 62.2805 50.2331C62.2811 50.2337 62.2817 50.2343 62.2822 50.2348C62.2828 50.2354 62.2834 50.236 62.284 50.2366C62.287 50.2396 62.2843 50.2369 62.2874 50.24C62.2965 50.2491 62.2817 50.2343 62.2908 50.2434C62.3029 50.2555 62.2821 50.2347 62.2942 50.2468C62.2948 50.2474 62.2953 50.2479 62.2959 50.2485C62.2965 50.2491 62.2971 50.2497 62.2976 50.2502C62.2982 50.2508 62.2988 50.2514 62.2993 50.2519C62.2999 50.2525 62.3005 50.2531 62.301 50.2536C62.3016 50.2542 62.3022 50.2548 62.3028 50.2554C62.3033 50.2559 62.3039 50.2565 62.3045 50.2571C62.3105 50.2631 62.3018 50.2544 62.3079 50.2605C62.3109 50.2635 62.3083 50.2609 62.3113 50.2639C62.3119 50.2645 62.3124 50.265 62.313 50.2656C62.3136 50.2662 62.3141 50.2667 62.3147 50.2673C62.3178 50.2704 62.3151 50.2677 62.3181 50.2707C62.3187 50.2713 62.3193 50.2719 62.3198 50.2724C62.3204 50.273 62.321 50.2736 62.3216 50.2742C62.3221 50.2747 62.3227 50.2753 62.3233 50.2759C62.3238 50.2764 62.3244 50.277 62.325 50.2776C62.328 50.2806 62.3253 50.278 62.3284 50.281C62.3345 50.2871 62.3257 50.2783 62.3318 50.2844C62.3324 50.285 62.3329 50.2855 62.3335 50.2861C62.3341 50.2867 62.3347 50.2873 62.3352 50.2878C62.3358 50.2884 62.3364 50.289 62.3369 50.2895C62.3375 50.2901 62.3381 50.2907 62.3386 50.2912C62.3417 50.2943 62.339 50.2916 62.3421 50.2947C62.3512 50.3038 62.3364 50.289 62.3455 50.2981C62.346 50.2986 62.3466 50.2992 62.3472 50.2998C62.3478 50.3004 62.3483 50.3009 62.3489 50.3015C62.3495 50.3021 62.35 50.3026 62.3506 50.3032C62.3512 50.3038 62.3517 50.3043 62.3523 50.3049C62.3614 50.314 62.3466 50.2992 62.3557 50.3083C62.3563 50.3089 62.3569 50.3095 62.3574 50.31C62.358 50.3106 62.3586 50.3112 62.3591 50.3118C62.3597 50.3123 62.3603 50.3129 62.3609 50.3135C62.3614 50.314 62.362 50.3146 62.3626 50.3152C62.3656 50.3182 62.3629 50.3155 62.366 50.3186C62.3666 50.3192 62.3671 50.3197 62.3677 50.3203C62.3683 50.3209 62.3688 50.3214 62.3694 50.322C62.3724 50.325 62.3698 50.3224 62.3728 50.3254C62.3734 50.326 62.374 50.3266 62.3745 50.3271C62.3751 50.3277 62.3757 50.3283 62.3762 50.3288C62.3768 50.3294 62.3774 50.33 62.3779 50.3305C62.3785 50.3311 62.3791 50.3317 62.3797 50.3323C62.3827 50.3353 62.38 50.3326 62.3831 50.3357C62.3892 50.3418 62.3804 50.333 62.3865 50.3391C62.3871 50.3397 62.3876 50.3402 62.3882 50.3408C62.3888 50.3414 62.3893 50.3419 62.3899 50.3425C62.3905 50.3431 62.391 50.3437 62.3916 50.3442C62.3922 50.3448 62.3928 50.3454 62.3933 50.3459C62.3964 50.349 62.3937 50.3463 62.3967 50.3493C62.4059 50.3585 62.391 50.3437 62.4002 50.3528C62.4123 50.3649 62.3914 50.344 62.4036 50.3562C62.4042 50.3568 62.4047 50.3573 62.4053 50.3579C62.4059 50.3585 62.4064 50.359 62.407 50.3596C62.4076 50.3602 62.4081 50.3607 62.4087 50.3613C62.4093 50.3619 62.4098 50.3624 62.4104 50.363C62.411 50.3636 62.4116 50.3642 62.4121 50.3647C62.4127 50.3653 62.4133 50.3659 62.4138 50.3664C62.4199 50.3725 62.4112 50.3638 62.4173 50.3699C62.4203 50.3729 62.4176 50.3702 62.4207 50.3733C62.4212 50.3738 62.4218 50.3744 62.4224 50.375C62.423 50.3756 62.4235 50.3761 62.4241 50.3767C62.4271 50.3797 62.4245 50.3771 62.4275 50.3801C62.4281 50.3807 62.4286 50.3812 62.4292 50.3818C62.4298 50.3824 62.4304 50.383 62.4309 50.3835C62.4315 50.3841 62.4321 50.3847 62.4326 50.3852C62.4332 50.3858 62.4338 50.3864 62.4343 50.3869C62.4374 50.39 62.4347 50.3873 62.4378 50.3904C62.4408 50.3934 62.4381 50.3907 62.4412 50.3938C62.4417 50.3944 62.4423 50.3949 62.4429 50.3955C62.4435 50.3961 62.444 50.3966 62.4446 50.3972C62.4452 50.3978 62.4457 50.3983 62.4463 50.3989C62.4469 50.3995 62.4474 50.4 62.448 50.4006C62.4511 50.4037 62.4484 50.401 62.4514 50.404C62.4605 50.4131 62.4457 50.3983 62.4549 50.4075C62.4554 50.408 62.456 50.4086 62.4566 50.4092C62.4571 50.4097 62.4577 50.4103 62.4583 50.4109C62.4588 50.4114 62.4594 50.412 62.46 50.4126C62.4605 50.4131 62.4611 50.4137 62.4617 50.4143C62.4708 50.4234 62.456 50.4086 62.4651 50.4177C62.4657 50.4183 62.4662 50.4188 62.4668 50.4194C62.4674 50.42 62.468 50.4206 62.4685 50.4211C62.4691 50.4217 62.4697 50.4223 62.4702 50.4228C62.4708 50.4234 62.4714 50.424 62.4719 50.4245C62.475 50.4276 62.4723 50.4249 62.4754 50.428C62.4759 50.4285 62.4765 50.4291 62.4771 50.4297C62.4776 50.4302 62.4782 50.4308 62.4788 50.4314C62.4818 50.4344 62.4792 50.4318 62.4822 50.4348C62.4828 50.4354 62.4833 50.4359 62.4839 50.4365C62.4845 50.4371 62.485 50.4376 62.4856 50.4382C62.4862 50.4388 62.4868 50.4394 62.4873 50.4399C62.4879 50.4405 62.4885 50.4411 62.489 50.4416C62.4921 50.4447 62.4894 50.442 62.4924 50.4451C62.4985 50.4511 62.4898 50.4424 62.4959 50.4485C62.4964 50.449 62.497 50.4496 62.4976 50.4502C62.4981 50.4507 62.4987 50.4513 62.4993 50.4519C62.4999 50.4525 62.5004 50.453 62.501 50.4536C62.5016 50.4542 62.5021 50.4547 62.5027 50.4553C62.5057 50.4583 62.5031 50.4557 62.5061 50.4587C62.5152 50.4678 62.5004 50.453 62.5095 50.4621C62.5217 50.4743 62.5008 50.4534 62.513 50.4656C62.5135 50.4661 62.5141 50.4667 62.5147 50.4673C62.5152 50.4678 62.5158 50.4684 62.5164 50.469C62.5169 50.4695 62.5175 50.4701 62.5181 50.4707C62.5187 50.4713 62.5192 50.4718 62.5198 50.4724C62.5204 50.473 62.5209 50.4735 62.5215 50.4741C62.5221 50.4747 62.5226 50.4752 62.5232 50.4758C62.5293 50.4819 62.5206 50.4732 62.5266 50.4792C62.5297 50.4823 62.527 50.4796 62.53 50.4826C62.5306 50.4832 62.5312 50.4838 62.5318 50.4844C62.5323 50.4849 62.5329 50.4855 62.5335 50.4861C62.5365 50.4891 62.5338 50.4864 62.5369 50.4895C62.5375 50.4901 62.538 50.4906 62.5386 50.4912C62.5392 50.4918 62.5397 50.4923 62.5403 50.4929C62.5409 50.4935 62.5414 50.494 62.542 50.4946C62.5426 50.4952 62.5431 50.4958 62.5437 50.4963L66.7864 46.2537C66.7833 46.2506 66.786 46.2533 66.7829 46.2503C66.7799 46.2472 66.7826 46.2499 66.7795 46.2468C66.779 46.2463 66.7784 46.2457 66.7778 46.2451C66.7772 46.2446 66.7767 46.244 66.7761 46.2434C66.7755 46.2429 66.775 46.2423 66.7744 46.2417C66.7738 46.2411 66.7733 46.2406 66.7727 46.24C66.7696 46.237 66.7723 46.2396 66.7693 46.2366C66.7602 46.2275 66.775 46.2423 66.7659 46.2332C66.7653 46.2326 66.7647 46.232 66.7641 46.2315C66.7636 46.2309 66.763 46.2303 66.7624 46.2298C66.7619 46.2292 66.7613 46.2286 66.7607 46.228C66.7602 46.2275 66.7596 46.2269 66.759 46.2263C66.7499 46.2172 66.7647 46.232 66.7556 46.2229C66.755 46.2223 66.7545 46.2218 66.7539 46.2212C66.7533 46.2206 66.7527 46.2201 66.7522 46.2195C66.7516 46.2189 66.751 46.2184 66.7505 46.2178C66.7499 46.2172 66.7493 46.2167 66.7488 46.2161C66.7457 46.213 66.7484 46.2157 66.7453 46.2127C66.7448 46.2121 66.7442 46.2115 66.7436 46.211C66.7431 46.2104 66.7425 46.2098 66.7419 46.2092C66.7389 46.2062 66.7415 46.2089 66.7385 46.2058C66.7379 46.2053 66.7374 46.2047 66.7368 46.2041C66.7362 46.2035 66.7357 46.203 66.7351 46.2024C66.7345 46.2018 66.734 46.2013 66.7334 46.2007C66.7328 46.2001 66.7322 46.1996 66.7317 46.199C66.7286 46.196 66.7313 46.1986 66.7283 46.1956C66.7252 46.1925 66.7279 46.1952 66.7248 46.1922C66.7243 46.1916 66.7237 46.191 66.7231 46.1904C66.7226 46.1899 66.722 46.1893 66.7214 46.1887C66.7208 46.1882 66.7203 46.1876 66.7197 46.187C66.7191 46.1865 66.7186 46.1859 66.718 46.1853C66.715 46.1823 66.7176 46.1849 66.7146 46.1819C66.7055 46.1728 66.7203 46.1876 66.7112 46.1785C66.702 46.1694 66.7169 46.1842 66.7077 46.1751C66.7072 46.1745 66.7066 46.1739 66.706 46.1734C66.7055 46.1728 66.7049 46.1722 66.7043 46.1716C66.7038 46.1711 66.7032 46.1705 66.7026 46.1699C66.702 46.1694 66.7015 46.1688 66.7009 46.1682C66.7003 46.1677 66.6998 46.1671 66.6992 46.1665C66.6986 46.166 66.6981 46.1654 66.6975 46.1648C66.6914 46.1587 66.7002 46.1675 66.6941 46.1614C66.691 46.1584 66.6937 46.161 66.6907 46.158C66.6901 46.1574 66.6895 46.1568 66.6889 46.1563C66.6884 46.1557 66.6878 46.1551 66.6872 46.1546C66.6842 46.1515 66.6869 46.1542 66.6838 46.1511C66.6833 46.1506 66.6827 46.15 66.6821 46.1494C66.6815 46.1489 66.681 46.1483 66.6804 46.1477C66.6798 46.1472 66.6793 46.1466 66.6787 46.146C66.6781 46.1454 66.6776 46.1449 66.677 46.1443C66.6739 46.1413 66.6766 46.1439 66.6736 46.1409C66.6675 46.1348 66.6762 46.1435 66.6701 46.1375C66.6696 46.1369 66.669 46.1363 66.6684 46.1358C66.6679 46.1352 66.6673 46.1346 66.6667 46.1341C66.6662 46.1335 66.6656 46.1329 66.665 46.1323C66.6645 46.1318 66.6639 46.1312 66.6633 46.1306C66.6603 46.1276 66.6629 46.1303 66.6599 46.1272C66.6508 46.1181 66.6656 46.1329 66.6565 46.1238C66.6559 46.1232 66.6553 46.1227 66.6548 46.1221C66.6542 46.1215 66.6536 46.1209 66.6531 46.1204C66.6525 46.1198 66.6519 46.1192 66.6513 46.1187C66.6508 46.1181 66.6502 46.1175 66.6496 46.117C66.6405 46.1078 66.6553 46.1227 66.6462 46.1135C66.6457 46.113 66.6451 46.1124 66.6445 46.1118C66.6439 46.1113 66.6434 46.1107 66.6428 46.1101C66.6422 46.1096 66.6417 46.109 66.6411 46.1084C66.6405 46.1078 66.64 46.1073 66.6394 46.1067C66.6363 46.1037 66.639 46.1063 66.636 46.1033C66.6354 46.1027 66.6348 46.1021 66.6343 46.1016C66.6337 46.101 66.6331 46.1004 66.6326 46.0999C66.6295 46.0968 66.6322 46.0995 66.6291 46.0965C66.6286 46.0959 66.628 46.0953 66.6274 46.0947C66.6269 46.0942 66.6263 46.0936 66.6257 46.093C66.6251 46.0925 66.6246 46.0919 66.624 46.0913C66.6234 46.0908 66.6229 46.0902 66.6223 46.0896C66.6193 46.0866 66.6219 46.0892 66.6189 46.0862C66.6128 46.0801 66.6215 46.0889 66.6155 46.0828C66.6149 46.0822 66.6143 46.0816 66.6138 46.0811C66.6132 46.0805 66.6126 46.0799 66.612 46.0794C66.6115 46.0788 66.6109 46.0782 66.6103 46.0777C66.6098 46.0771 66.6092 46.0765 66.6086 46.0759C66.6056 46.0729 66.6082 46.0756 66.6052 46.0725C66.5961 46.0634 66.6109 46.0782 66.6018 46.0691C66.5896 46.057 66.6105 46.0778 66.5984 46.0657C66.5978 46.0651 66.5972 46.0646 66.5967 46.064C66.5961 46.0634 66.5955 46.0628 66.595 46.0623C66.5944 46.0617 66.5938 46.0611 66.5932 46.0606C66.5927 46.06 66.5921 46.0594 66.5915 46.0589C66.591 46.0583 66.5904 46.0577 66.5898 46.0571C66.5893 46.0566 66.5887 46.056 66.5881 46.0554C66.582 46.0494 66.5908 46.0581 66.5847 46.052C66.5817 46.049 66.5843 46.0516 66.5813 46.0486C66.5807 46.048 66.5801 46.0475 66.5796 46.0469C66.579 46.0463 66.5784 46.0458 66.5779 46.0452C66.5748 46.0421 66.5775 46.0448 66.5744 46.0418C66.5739 46.0412 66.5733 46.0406 66.5727 46.0401C66.5722 46.0395 66.5716 46.0389 66.571 46.0383C66.5705 46.0378 66.5699 46.0372 66.5693 46.0366C66.5687 46.0361 66.5682 46.0355 66.5676 46.0349C66.5646 46.0319 66.5672 46.0345 66.5642 46.0315C66.5612 46.0285 66.5638 46.0311 66.5608 46.0281C66.5602 46.0275 66.5596 46.027 66.5591 46.0264C66.5585 46.0258 66.5579 46.0252 66.5574 46.0247C66.5568 46.0241 66.5562 46.0235 66.5556 46.023C66.5551 46.0224 66.5545 46.0218 66.5539 46.0213C66.5509 46.0182 66.5536 46.0209 66.5505 46.0178C66.5414 46.0087 66.5562 46.0235 66.5471 46.0144C66.5465 46.0139 66.546 46.0133 66.5454 46.0127C66.5448 46.0121 66.5443 46.0116 66.5437 46.011C66.5431 46.0104 66.5425 46.0099 66.542 46.0093C66.5414 46.0087 66.5408 46.0082 66.5403 46.0076C66.5312 45.9985 66.546 46.0133 66.5368 46.0042C66.5363 46.0036 66.5357 46.003 66.5351 46.0025C66.5346 46.0019 66.534 46.0013 66.5334 46.0007C66.5329 46.0002 66.5323 45.9996 66.5317 45.999C66.5312 45.9985 66.5306 45.9979 66.53 45.9973C66.527 45.9943 66.5296 45.997 66.5266 45.9939C66.526 45.9933 66.5255 45.9928 66.5249 45.9922C66.5243 45.9916 66.5237 45.9911 66.5232 45.9905C66.5201 45.9875 66.5228 45.9901 66.5198 45.9871C66.5192 45.9865 66.5186 45.9859 66.518 45.9854C66.5175 45.9848 66.5169 45.9842 66.5163 45.9837C66.5158 45.9831 66.5152 45.9825 66.5146 45.982C66.5141 45.9814 66.5135 45.9808 66.5129 45.9802C66.5099 45.9772 66.5125 45.9799 66.5095 45.9768C66.5034 45.9707 66.5122 45.9795 66.5061 45.9734C66.5055 45.9728 66.5049 45.9723 66.5044 45.9717C66.5038 45.9711 66.5032 45.9706 66.5027 45.97C66.5021 45.9694 66.5015 45.9688 66.501 45.9683C66.5004 45.9677 66.4998 45.9671 66.4993 45.9666C66.4962 45.9635 66.4989 45.9662 66.4958 45.9632C66.4867 45.954 66.5015 45.9688 66.4924 45.9597C66.4803 45.9476 66.5011 45.9685 66.489 45.9563C66.4884 45.9557 66.4879 45.9552 66.4873 45.9546C66.4867 45.954 66.4861 45.9535 66.4856 45.9529C66.485 45.9523 66.4844 45.9518 66.4839 45.9512C66.4833 45.9506 66.4827 45.9501 66.4822 45.9495C66.4816 45.9489 66.481 45.9483 66.4805 45.9478C66.4799 45.9472 66.4793 45.9466 66.4787 45.9461C66.4727 45.94 66.4814 45.9487 66.4753 45.9426C66.4723 45.9396 66.4749 45.9423 66.4719 45.9392C66.4713 45.9387 66.4708 45.9381 66.4702 45.9375C66.4696 45.9369 66.4691 45.9364 66.4685 45.9358C66.4655 45.9328 66.4681 45.9354 66.4651 45.9324C66.4645 45.9318 66.4639 45.9313 66.4634 45.9307C66.4628 45.9301 66.4622 45.9295 66.4617 45.929C66.4611 45.9284 66.4605 45.9278 66.4599 45.9273C66.4594 45.9267 66.4588 45.9261 66.4582 45.9256C66.4552 45.9225 66.4579 45.9252 66.4548 45.9221C66.4518 45.9191 66.4544 45.9218 66.4514 45.9187C66.4508 45.9181 66.4503 45.9176 66.4497 45.917C66.4491 45.9164 66.4486 45.9159 66.448 45.9153C66.4474 45.9147 66.4468 45.9142 66.4463 45.9136C66.4457 45.913 66.4451 45.9125 66.4446 45.9119C66.4415 45.9088 66.4442 45.9115 66.4411 45.9085C66.432 45.8994 66.4468 45.9142 66.4377 45.905C66.4372 45.9045 66.4366 45.9039 66.436 45.9033C66.4354 45.9028 66.4349 45.9022 66.4343 45.9016C66.4337 45.9011 66.4332 45.9005 66.4326 45.8999C66.432 45.8994 66.4315 45.8988 66.4309 45.8982C66.4218 45.8891 66.4366 45.9039 66.4275 45.8948C66.4269 45.8942 66.4263 45.8937 66.4258 45.8931C66.4252 45.8925 66.4246 45.8919 66.4241 45.8914C66.4235 45.8908 66.4229 45.8902 66.4223 45.8897C66.4218 45.8891 66.4212 45.8885 66.4206 45.888C66.4176 45.8849 66.4203 45.8876 66.4172 45.8845C66.4166 45.884 66.4161 45.8834 66.4155 45.8828C66.4149 45.8823 66.4144 45.8817 66.4138 45.8811C66.4108 45.8781 66.4134 45.8807 66.4104 45.8777C66.4098 45.8771 66.4092 45.8766 66.4087 45.876C66.4081 45.8754 66.4075 45.8749 66.407 45.8743C66.4064 45.8737 66.4058 45.8731 66.4053 45.8726C66.4047 45.872 66.4041 45.8714 66.4035 45.8709C66.4005 45.8678 66.4032 45.8705 66.4001 45.8674C66.3941 45.8614 66.4028 45.8701 66.3967 45.864C66.3961 45.8635 66.3956 45.8629 66.395 45.8623C66.3944 45.8618 66.3939 45.8612 66.3933 45.8606C66.3927 45.86 66.3922 45.8595 66.3916 45.8589C66.391 45.8583 66.3904 45.8578 66.3899 45.8572C66.3868 45.8542 66.3895 45.8568 66.3865 45.8538C66.3773 45.8447 66.3922 45.8595 66.383 45.8504C66.3739 45.8412 66.3887 45.8561 66.3796 45.8469C66.3791 45.8464 66.3785 45.8458 66.3779 45.8452C66.3773 45.8447 66.3768 45.8441 66.3762 45.8435C66.3756 45.843 66.3751 45.8424 66.3745 45.8418C66.3739 45.8412 66.3734 45.8407 66.3728 45.8401C66.3728 45.8401 66.3694 45.8367 66.3694 45.8367C66.3633 45.8306 66.372 45.8393 66.3659 45.8333C66.3629 45.8302 66.3656 45.8329 66.3625 45.8299C66.362 45.8293 66.3614 45.8287 66.3608 45.8281C66.3603 45.8276 66.3597 45.827 66.3591 45.8264C66.3561 45.8234 66.3587 45.8261 66.3557 45.823C66.3551 45.8224 66.3546 45.8219 66.354 45.8213C66.3534 45.8207 66.3528 45.8202 66.3523 45.8196C66.3517 45.819 66.3511 45.8185 66.3506 45.8179C66.35 45.8173 66.3494 45.8167 66.3489 45.8162C66.3458 45.8131 66.3485 45.8158 66.3454 45.8128C66.3394 45.8067 66.3481 45.8154 66.342 45.8093C66.3415 45.8088 66.3409 45.8082 66.3403 45.8076C66.3397 45.8071 66.3392 45.8065 66.3386 45.8059C66.338 45.8054 66.3375 45.8048 66.3369 45.8042C66.3363 45.8036 66.3358 45.8031 66.3352 45.8025C66.3321 45.7995 66.3348 45.8021 66.3318 45.7991C66.3227 45.79 66.3375 45.8048 66.3284 45.7957C66.3278 45.7951 66.3272 45.7945 66.3266 45.794C66.3261 45.7934 66.3255 45.7928 66.3249 45.7923C66.3244 45.7917 66.3238 45.7911 66.3232 45.7905C66.3227 45.79 66.3221 45.7894 66.3215 45.7888C66.3124 45.7797 66.3272 45.7945 66.3181 45.7854C66.3181 45.7854 66.3147 45.782 66.3147 45.782C66.3141 45.7814 66.3135 45.7809 66.313 45.7803C66.3124 45.7797 66.3118 45.7792 66.3113 45.7786C66.3082 45.7755 66.3109 45.7782 66.3078 45.7752C66.3073 45.7746 66.3067 45.774 66.3061 45.7735C66.3056 45.7729 66.305 45.7723 66.3044 45.7717C66.3014 45.7687 66.304 45.7714 66.301 45.7683C66.3004 45.7678 66.2999 45.7672 66.2993 45.7666C66.2987 45.766 66.2982 45.7655 66.2976 45.7649C66.297 45.7643 66.2965 45.7638 66.2959 45.7632C66.2953 45.7626 66.2947 45.7621 66.2942 45.7615C66.2911 45.7585 66.2938 45.7611 66.2908 45.7581C66.2877 45.755 66.2904 45.7577 66.2873 45.7547C66.2868 45.7541 66.2862 45.7535 66.2856 45.7529C66.2851 45.7524 66.2845 45.7518 66.2839 45.7512C66.2833 45.7507 66.2828 45.7501 66.2822 45.7495C66.2816 45.749 66.2811 45.7484 66.2805 45.7478C66.2775 45.7448 66.2801 45.7474 66.2771 45.7444C66.268 45.7353 66.2828 45.7501 66.2737 45.741C66.2615 45.7288 66.2824 45.7497 66.2702 45.7376C66.2697 45.737 66.2691 45.7364 66.2685 45.7359C66.268 45.7353 66.2674 45.7347 66.2668 45.7341C66.2663 45.7336 66.2657 45.733 66.2651 45.7324C66.2645 45.7319 66.264 45.7313 66.2634 45.7307C66.2634 45.7307 66.26 45.7273 66.26 45.7273C66.2539 45.7212 66.2627 45.73 66.2566 45.7239C66.2535 45.7209 66.2562 45.7235 66.2532 45.7205C66.2526 45.7199 66.252 45.7193 66.2514 45.7188C66.2509 45.7182 66.2503 45.7176 66.2497 45.7171C66.2467 45.714 66.2494 45.7167 66.2463 45.7136C66.2458 45.7131 66.2452 45.7125 66.2446 45.7119C66.244 45.7114 66.2435 45.7108 66.2429 45.7102C66.2423 45.7097 66.2418 45.7091 66.2412 45.7085C66.2406 45.7079 66.2401 45.7074 66.2395 45.7068C66.2364 45.7038 66.2391 45.7064 66.2361 45.7034C66.233 45.7003 66.2357 45.703 66.2326 45.7C66.2321 45.6994 66.2315 45.6988 66.2309 45.6983C66.2304 45.6977 66.2298 45.6971 66.2292 45.6966C66.2287 45.696 66.2281 45.6954 66.2275 45.6948C66.227 45.6943 66.2264 45.6937 66.2258 45.6931C66.2228 45.6901 66.2254 45.6928 66.2224 45.6897C66.2133 45.6806 66.2281 45.6954 66.219 45.6863C66.2184 45.6857 66.2178 45.6852 66.2173 45.6846C66.2167 45.684 66.2161 45.6834 66.2156 45.6829C66.215 45.6823 66.2144 45.6817 66.2138 45.6812C66.2133 45.6806 66.2127 45.68 66.2121 45.6795C66.203 45.6703 66.2178 45.6852 66.2087 45.676C66.2082 45.6755 66.2076 45.6749 66.207 45.6743C66.2064 45.6738 66.2059 45.6732 66.2053 45.6726C66.2047 45.6721 66.2042 45.6715 66.2036 45.6709C66.203 45.6703 66.2025 45.6698 66.2019 45.6692C66.1988 45.6662 66.2015 45.6688 66.1985 45.6658C66.1979 45.6652 66.1973 45.6646 66.1968 45.6641C66.1962 45.6635 66.1956 45.6629 66.1951 45.6624C66.192 45.6593 66.1947 45.662 66.1916 45.659C66.1911 45.6584 66.1905 45.6578 66.1899 45.6572C66.1894 45.6567 66.1888 45.6561 66.1882 45.6555C66.1876 45.655 66.1871 45.6544 66.1865 45.6538C66.1859 45.6533 66.1854 45.6527 66.1848 45.6521C66.1818 45.6491 66.1844 45.6517 66.1814 45.6487C66.1783 45.6457 66.181 45.6483 66.178 45.6453C66.1774 45.6447 66.1768 45.6441 66.1763 45.6436C66.1757 45.643 66.1751 45.6424 66.1745 45.6419C66.174 45.6413 66.1734 45.6407 66.1728 45.6402C66.1723 45.6396 66.1717 45.639 66.1711 45.6384C66.1681 45.6354 66.1707 45.6381 66.1677 45.635C66.1586 45.6259 66.1734 45.6407 66.1643 45.6316C66.1521 45.6195 66.173 45.6403 66.1609 45.6282C66.1603 45.6276 66.1597 45.6271 66.1592 45.6265C66.1586 45.6259 66.158 45.6253 66.1575 45.6248C66.1569 45.6242 66.1563 45.6236 66.1557 45.6231C66.1552 45.6225 66.1546 45.6219 66.154 45.6214C66.1535 45.6208 66.1529 45.6202 66.1523 45.6196C66.1518 45.6191 66.1512 45.6185 66.1506 45.6179C66.1445 45.6119 66.1533 45.6206 66.1472 45.6145C66.1442 45.6115 66.1468 45.6141 66.1438 45.6111C66.1432 45.6105 66.1426 45.61 66.1421 45.6094C66.1415 45.6088 66.1409 45.6083 66.1404 45.6077C66.1373 45.6046 66.14 45.6073 66.1369 45.6043C66.1364 45.6037 66.1358 45.6031 66.1352 45.6026C66.1347 45.602 66.1341 45.6014 66.1335 45.6008C66.133 45.6003 66.1324 45.5997 66.1318 45.5991C66.1312 45.5986 66.1307 45.598 66.1301 45.5974C66.1271 45.5944 66.1297 45.597 66.1267 45.594C66.1206 45.5879 66.1293 45.5967 66.1233 45.5906C66.1227 45.59 66.1221 45.5895 66.1216 45.5889C66.121 45.5883 66.1204 45.5877 66.1199 45.5872C66.1193 45.5866 66.1187 45.586 66.1181 45.5855C66.1176 45.5849 66.117 45.5843 66.1164 45.5838C66.1134 45.5807 66.1161 45.5834 66.113 45.5803C66.1039 45.5712 66.1187 45.586 66.1096 45.5769C66.109 45.5764 66.1085 45.5758 66.1079 45.5752C66.1073 45.5746 66.1068 45.5741 66.1062 45.5735C66.1056 45.5729 66.105 45.5724 66.1045 45.5718C66.1039 45.5712 66.1033 45.5707 66.1028 45.5701C66.0937 45.561 66.1085 45.5758 66.0993 45.5667C66.0988 45.5661 66.0982 45.5655 66.0976 45.565C66.0971 45.5644 66.0965 45.5638 66.0959 45.5632C66.0954 45.5627 66.0948 45.5621 66.0942 45.5615C66.0937 45.561 66.0931 45.5604 66.0925 45.5598C66.0895 45.5568 66.0921 45.5595 66.0891 45.5564C66.0885 45.5558 66.088 45.5553 66.0874 45.5547C66.0868 45.5541 66.0862 45.5536 66.0857 45.553C66.0826 45.55 66.0853 45.5526 66.0823 45.5496C66.0817 45.549 66.0811 45.5484 66.0805 45.5479C66.08 45.5473 66.0794 45.5467 66.0788 45.5462C66.0783 45.5456 66.0777 45.545 66.0771 45.5445C66.0766 45.5439 66.076 45.5433 66.0754 45.5427C66.0724 45.5397 66.075 45.5424 66.072 45.5393C66.0659 45.5332 66.0747 45.542 66.0686 45.5359C66.068 45.5353 66.0674 45.5348 66.0669 45.5342C66.0663 45.5336 66.0657 45.5331 66.0652 45.5325C66.0646 45.5319 66.064 45.5313 66.0635 45.5308C66.0629 45.5302 66.0623 45.5296 66.0618 45.5291C66.0587 45.526 66.0614 45.5287 66.0583 45.5257C66.0492 45.5165 66.064 45.5313 66.0549 45.5222C66.0428 45.5101 66.0636 45.531 66.0515 45.5188C66.0509 45.5182 66.0504 45.5177 66.0498 45.5171C66.0492 45.5165 66.0486 45.516 66.0481 45.5154C66.0475 45.5148 66.0469 45.5143 66.0464 45.5137C66.0458 45.5131 66.0452 45.5126 66.0447 45.512C66.0441 45.5114 66.0435 45.5108 66.043 45.5103C66.0424 45.5097 66.0418 45.5091 66.0412 45.5086C66.0352 45.5025 66.0439 45.5112 66.0378 45.5051C66.0348 45.5021 66.0374 45.5048 66.0344 45.5017C66.0338 45.5012 66.0333 45.5006 66.0327 45.5C66.0321 45.4994 66.0316 45.4989 66.031 45.4983C66.028 45.4953 66.0306 45.4979 66.0276 45.4949C66.027 45.4943 66.0264 45.4938 66.0259 45.4932C66.0253 45.4926 66.0247 45.492 66.0242 45.4915C66.0236 45.4909 66.023 45.4903 66.0224 45.4898C66.0219 45.4892 66.0213 45.4886 66.0207 45.4881C66.0177 45.485 66.0204 45.4877 66.0173 45.4846C66.0143 45.4816 66.0169 45.4843 66.0139 45.4812C66.0133 45.4806 66.0128 45.4801 66.0122 45.4795C66.0116 45.4789 66.0111 45.4784 66.0105 45.4778C66.0099 45.4772 66.0093 45.4767 66.0088 45.4761C66.0082 45.4755 66.0076 45.475 66.0071 45.4744C66.004 45.4713 66.0067 45.474 66.0036 45.471C65.9945 45.4619 66.0093 45.4767 66.0002 45.4675C65.9997 45.467 65.9991 45.4664 65.9985 45.4658C65.9979 45.4653 65.9974 45.4647 65.9968 45.4641C65.9962 45.4636 65.9957 45.463 65.9951 45.4624C65.9945 45.4619 65.994 45.4613 65.9934 45.4607C65.9843 45.4516 65.9991 45.4664 65.99 45.4573C65.9894 45.4567 65.9888 45.4562 65.9883 45.4556C65.9877 45.455 65.9871 45.4544 65.9866 45.4539C65.986 45.4533 65.9854 45.4527 65.9848 45.4522C65.9843 45.4516 65.9837 45.451 65.9831 45.4505C65.9801 45.4474 65.9828 45.4501 65.9797 45.447C65.9791 45.4465 65.9786 45.4459 65.978 45.4453C65.9774 45.4448 65.9769 45.4442 65.9763 45.4436C65.9733 45.4406 65.9759 45.4432 65.9729 45.4402C65.9723 45.4396 65.9717 45.4391 65.9712 45.4385C65.9706 45.4379 65.97 45.4374 65.9695 45.4368C65.9689 45.4362 65.9683 45.4356 65.9678 45.4351C65.9672 45.4345 65.9666 45.4339 65.966 45.4334C65.963 45.4303 65.9657 45.433 65.9626 45.4299C65.9566 45.4239 65.9653 45.4326 65.9592 45.4265C65.9586 45.426 65.9581 45.4254 65.9575 45.4248C65.9569 45.4243 65.9564 45.4237 65.9558 45.4231C65.9552 45.4225 65.9547 45.422 65.9541 45.4214C65.9535 45.4208 65.9529 45.4203 65.9524 45.4197C65.9493 45.4167 65.952 45.4193 65.949 45.4163C65.9398 45.4072 65.9547 45.422 65.9455 45.4129C65.9334 45.4007 65.9543 45.4216 65.9421 45.4094C65.9416 45.4089 65.941 45.4083 65.9404 45.4077C65.9398 45.4072 65.9393 45.4066 65.9387 45.406C65.9381 45.4055 65.9376 45.4049 65.937 45.4043C65.9364 45.4037 65.9359 45.4032 65.9353 45.4026C65.9347 45.402 65.9341 45.4015 65.9336 45.4009C65.933 45.4003 65.9324 45.3998 65.9319 45.3992C65.9258 45.3931 65.9345 45.4018 65.9284 45.3958C65.9254 45.3927 65.9281 45.3954 65.925 45.3924C65.9245 45.3918 65.9239 45.3912 65.9233 45.3906C65.9228 45.3901 65.9222 45.3895 65.9216 45.3889C65.9186 45.3859 65.9212 45.3886 65.9182 45.3855C65.9176 45.3849 65.9171 45.3844 65.9165 45.3838C65.9159 45.3832 65.9153 45.3827 65.9148 45.3821C65.9142 45.3815 65.9136 45.381 65.9131 45.3804C65.9125 45.3798 65.9119 45.3792 65.9114 45.3787L61.6687 49.6213ZM62.6895 50.6327C62.6857 50.6294 62.6545 50.6012 62.6148 50.5433C62.5739 50.4839 62.5349 50.409 62.5065 50.3237L68.1986 48.4263C67.8853 47.4864 67.3258 46.7168 66.6406 46.1173L62.6895 50.6327ZM62.6111 48.1566C62.3302 48.7886 62.1369 49.4618 62.0584 50.1687L68.0217 50.8313C68.0265 50.7882 68.0415 50.7114 68.094 50.5934L62.6111 48.1566ZM62.0584 50.1687C62.0376 50.3562 62.0167 50.5437 61.9959 50.7312C61.9751 50.9187 61.9542 51.1062 61.9334 51.2937L67.8967 51.9563C67.9175 51.7688 67.9384 51.5813 67.9592 51.3938C67.98 51.2063 68.0009 51.0188 68.0217 50.8313L62.0584 50.1687ZM61.915 51.625C61.915 51.6605 61.9101 51.7156 61.8815 51.8013L67.5736 53.6987C67.795 53.0344 67.915 52.3395 67.915 51.625H61.915ZM61.799 52.0992C61.8151 52.0266 61.8351 51.9829 61.8411 51.9709C61.8465 51.9601 61.8373 51.9814 61.797 52.0332L66.5331 55.7168C67.0344 55.0723 67.4564 54.2996 67.6561 53.4008L61.799 52.0992ZM63.0509 51.0896C62.5626 51.2849 62.086 51.375 61.6025 51.375V57.375C62.8691 57.375 64.1008 57.1318 65.2792 56.6604L63.0509 51.0896ZM61.6025 51.375C60.5189 51.375 59.4595 51.5106 58.4435 51.8094L60.1365 57.5656C60.5372 57.4477 61.0195 57.375 61.6025 57.375V51.375ZM59.9849 51.7691C59.6916 51.6993 59.4583 51.5681 59.2287 51.3232L54.8514 55.4268C55.8718 56.5152 57.1385 57.2591 58.5952 57.6059L59.9849 51.7691ZM59.2332 51.328C58.8892 50.9595 58.5877 50.5106 58.3383 49.9564L52.8668 52.4186C53.3674 53.5311 54.0242 54.5405 54.8469 55.422L59.2332 51.328ZM58.3383 49.9564C58.0397 49.2929 57.8098 48.6181 57.646 47.9301L51.8091 49.3199C52.062 50.3819 52.4154 51.4154 52.8668 52.4186L58.3383 49.9564ZM57.646 47.9301C57.4455 47.0881 57.2899 46.3663 57.1762 45.7596L51.2789 46.8654C51.4152 47.592 51.5929 48.4119 51.8091 49.3199L57.646 47.9301ZM56.8612 47.7491C56.9831 47.5256 57.1375 47.2079 57.2444 46.8279C57.3388 46.4922 57.4911 45.782 57.2416 44.9505C56.9356 43.9302 56.1793 43.2229 55.3307 42.8997C54.6383 42.6359 54.018 42.6715 53.7087 42.7058L54.3713 48.6692C54.2496 48.6827 53.7777 48.7287 53.1947 48.5066C52.4555 48.225 51.7695 47.5906 51.4947 46.6745C51.2765 45.9471 51.421 45.3724 51.4685 45.2034C51.5011 45.0875 51.5349 45.0035 51.5549 44.9575C51.5756 44.9098 51.5907 44.8817 51.5939 44.8759L56.8612 47.7491ZM56.9246 44.8633C56.9213 44.8519 56.9308 44.881 56.9286 44.9392C56.9264 44.9988 56.9135 45.0486 56.9026 45.0769L51.3025 42.9231C50.8493 44.1013 50.8186 45.3327 51.1555 46.5117L56.9246 44.8633ZM56.9026 45.0769C57.1815 44.3517 57.5897 42.9793 56.985 41.5682L51.4701 43.9318C51.279 43.4859 51.2909 43.1232 51.3049 42.9827C51.3188 42.8442 51.3446 42.8137 51.3025 42.9231L56.9026 45.0769ZM57.218 42.9892C57.2892 42.0993 57.4332 41.1538 57.6561 40.1508L51.799 38.8492C51.5219 40.0962 51.3326 41.3174 51.2371 42.5108L57.218 42.9892ZM57.6609 40.1286C57.9075 38.9781 58.1961 37.6792 58.5271 36.231L52.678 34.894C52.3423 36.3625 52.0476 37.6886 51.7941 38.8714L57.6609 40.1286ZM56.2771 32.6393C55.6176 32.4871 54.9103 32.3667 54.1621 32.2732L53.4179 38.2268C54.0031 38.3 54.5041 38.3879 54.928 38.4857L56.2771 32.6393ZM54.3784 32.3083C53.6273 32.158 52.8724 32.0572 52.1146 32.0066L51.7155 37.9934C52.2076 38.0262 52.7028 38.092 53.2017 38.1917L54.3784 32.3083ZM52.3393 32.0302C51.7075 31.9399 51.1068 31.8702 50.5392 31.8229L50.0409 37.8021C50.4733 37.8382 50.9559 37.8934 51.4908 37.9698L52.3393 32.0302ZM50.5392 31.8229C50.0212 31.7797 49.5446 31.75 49.165 31.75V37.75C49.2855 37.75 49.5589 37.762 50.0409 37.8021L50.5392 31.8229ZM49.938 31.8513C49.6199 31.7665 49.4252 31.6615 49.3046 31.5738L45.7755 36.4262C46.5716 37.0052 47.4602 37.4002 48.3921 37.6487L49.938 31.8513ZM49.4398 31.6781C49.0927 31.3942 48.7875 31.1029 48.5199 30.8056L44.0602 34.8194C44.5426 35.3554 45.0707 35.8558 45.6403 36.3219L49.4398 31.6781ZM48.6119 30.9128C48.4244 30.6836 48.2369 30.4545 48.0494 30.2253C47.8619 29.9961 47.6744 29.767 47.4869 29.5378L42.8432 33.3372C43.0307 33.5664 43.2182 33.7955 43.4057 34.0247C43.5932 34.2539 43.7807 34.483 43.9682 34.7122L48.6119 30.9128ZM47.5912 29.673C47.1974 29.1314 46.7778 28.613 46.3324 28.1181L41.8727 32.1319C42.1773 32.4704 42.466 32.8269 42.7388 33.202L47.5912 29.673ZM47.0916 29.8688C46.9571 28.2998 46.7335 26.7149 46.4224 25.1149L40.5327 26.2601C40.8049 27.6601 40.998 29.0336 41.1135 30.3812L47.0916 29.8688ZM46.4224 25.1149C46.1338 23.6309 45.8662 22.1897 45.6194 20.7911L39.7107 21.8339C39.9639 23.2687 40.2379 24.7441 40.5327 26.2601L46.4224 25.1149ZM45.6194 20.7911C45.3806 19.438 45.2042 18.1796 45.0877 17.014L39.1174 17.611C39.2509 18.9454 39.4495 20.3537 39.7107 21.8339L45.6194 20.7911ZM45.0877 17.014C44.9898 16.0351 45.0503 15.2657 45.2005 14.6651L39.3796 13.2099C39.0298 14.6093 38.9653 16.0899 39.1174 17.611L45.0877 17.014ZM44.7862 15.6016C45.1858 15.0022 45.5842 14.4246 45.9812 13.8687L41.0988 10.3813C40.6626 10.9921 40.2276 11.6228 39.7939 12.2734L44.7862 15.6016ZM45.9812 13.8687C46.2055 13.5548 46.4698 13.2904 46.7838 13.0662L43.2963 8.1838C42.4436 8.79289 41.7079 9.52857 41.0988 10.3813L45.9812 13.8687ZM44.2507 13.5193C44.2191 13.5107 44.1321 13.4821 44.0197 13.4093C43.9034 13.3341 43.7926 13.2325 43.7025 13.1125L48.5025 9.5125C47.7971 8.57195 46.8367 8.00542 45.8294 7.73071L44.2507 13.5193ZM43.9812 13.4338C44.068 13.5206 44.1517 13.6283 44.2301 13.7694L49.475 10.8556C49.1367 10.2467 48.7204 9.68772 48.2239 9.19118L43.9812 13.4338ZM44.4525 14.1125C44.5775 14.2792 44.7025 14.4458 44.8275 14.6125C44.9525 14.7792 45.0775 14.9458 45.2025 15.1125L50.0025 11.5125C49.8775 11.3458 49.7525 11.1792 49.6275 11.0125C49.5025 10.8458 49.3775 10.6792 49.2525 10.5125L44.4525 14.1125ZM45.4812 15.4338C46.1949 16.1475 47.0536 16.5905 47.9382 16.8318L49.5169 11.0432C49.4958 11.0374 49.515 11.0403 49.5595 11.065C49.6058 11.0908 49.6648 11.1321 49.7239 11.1912L45.4812 15.4338ZM45.7919 14.5555C46.0049 15.5672 46.3274 16.5392 46.7631 17.4649L52.192 14.9101C51.961 14.4192 51.7835 13.8911 51.6632 13.3195L45.7919 14.5555ZM46.8628 17.6583C47.178 18.2186 47.4582 18.7964 47.7035 19.3922L53.2516 17.1078C52.9136 16.2869 52.5271 15.4897 52.0923 14.7167L46.8628 17.6583ZM47.7631 19.5274C48.0152 20.0631 48.2249 20.6404 48.3888 21.2635L54.1913 19.7365C53.9386 18.7763 53.6066 17.8536 53.192 16.9726L47.7631 19.5274ZM48.444 21.4487C48.573 21.8358 48.665 22.3605 48.665 23.0625H54.665C54.665 21.8478 54.507 20.6642 54.1361 19.5513L48.444 21.4487ZM49.1689 24.7266C49.7604 25.6139 50.647 26.5947 51.9523 27.0694L54.0028 21.4306C54.2059 21.5045 54.3084 21.5944 54.3184 21.6035C54.3239 21.6085 54.3111 21.5976 54.2823 21.5631C54.2535 21.5287 54.2126 21.4754 54.1612 21.3984L49.1689 24.7266ZM52.2499 27.1604C53.0793 27.3678 53.9245 27.4312 54.7701 27.3662L54.3099 21.3838C54.0723 21.4021 53.8757 21.3822 53.7051 21.3396L52.2499 27.1604ZM54.7701 27.3662C55.041 27.3453 55.3118 27.3245 55.5826 27.3037C55.8535 27.2828 56.1243 27.262 56.3951 27.2412L55.9349 21.2588C55.6641 21.2797 55.3933 21.3005 55.1224 21.3213C54.8516 21.3422 54.5808 21.363 54.3099 21.3838L54.7701 27.3662ZM56.3788 27.2424C56.5995 27.2266 56.8318 27.248 57.0909 27.3221L58.7392 21.5529C57.8316 21.2936 56.8972 21.1901 55.9513 21.2576L56.3788 27.2424ZM60.4875 25.981C60.2698 26.3439 59.9355 26.672 59.5067 26.8864C59.1026 27.0885 58.7453 27.125 58.54 27.125V21.125C57.4422 21.125 56.126 21.5882 55.3426 22.894L60.4875 25.981ZM58.9643 27.0948C59.5696 27.0084 60.2177 26.817 60.8335 26.4475L57.7466 21.3025C57.9457 21.183 58.0938 21.1583 58.1158 21.1552L58.9643 27.0948ZM60.2387 26.721C60.9811 26.4736 61.6805 25.9718 62.1438 25.1997C62.5714 24.487 62.665 23.7662 62.665 23.25H56.665C56.665 23.0672 56.6962 22.6172 56.9988 22.1128C57.337 21.549 57.849 21.1931 58.3414 21.029L60.2387 26.721ZM62.6419 23.6221C62.6024 23.9381 62.4498 24.4891 61.9582 24.9807C61.4667 25.4723 60.9156 25.6248 60.5996 25.6643L59.8554 19.7107C59.2061 19.7918 58.3947 20.059 57.7156 20.7381C57.0365 21.4171 56.7694 22.2286 56.6882 22.8779L62.6419 23.6221ZM63.207 22.337C63.1502 21.854 63.1528 21.4096 63.2044 20.9971L57.2507 20.2529C57.1356 21.1737 57.1382 22.1043 57.2481 23.038L63.207 22.337ZM63.1819 21.1464C63.3132 20.4022 63.4241 19.6936 63.5137 19.0215L57.5664 18.2285C57.4893 18.8064 57.3919 19.4312 57.2732 20.1036L63.1819 21.1464ZM63.4818 19.2133C63.642 18.4123 63.7275 17.6106 63.7275 16.8125H57.7275C57.7275 17.181 57.6881 17.5877 57.5983 18.0367L63.4818 19.2133ZM63.7199 17.0262C63.7929 16.0039 63.6425 15.0048 63.3028 14.0535L57.6523 16.0715C57.7292 16.2868 57.7455 16.4545 57.7352 16.5988L63.7199 17.0262ZM63.1323 16.4597C63.7758 15.2372 64.1106 13.8859 64.2187 12.4801L58.2364 12.0199C58.1778 12.7808 58.0127 13.3045 57.8228 13.6653L63.1323 16.4597ZM64.2092 12.5813C64.3333 11.4643 64.4573 10.3897 64.5812 9.35744L58.6239 8.64256C58.4978 9.69359 58.3718 10.7857 58.2459 11.9187L64.2092 12.5813ZM64.5649 9.47397C64.696 8.65426 64.8996 7.97686 65.1508 7.41859L59.6793 4.95641C59.1805 6.0648 58.8424 7.2624 58.6402 8.52603L64.5649 9.47397ZM65.1236 7.4773C65.1582 7.4046 65.1855 7.37778 65.2056 7.36063C65.2301 7.33973 65.3065 7.2818 65.4887 7.22105L63.5914 1.52895C61.8928 2.09514 60.5065 3.21763 59.7065 4.8977L65.1236 7.4773ZM62.5971 6.66082C64.5817 8.34778 66.0391 10.6573 66.9005 13.7439L72.6796 12.1311C71.541 8.05102 69.4983 4.65222 66.483 2.08918L62.5971 6.66082ZM66.8716 12.2426C66.4214 14.1334 66.1396 15.9373 66.0447 17.6461L72.0354 17.9789C72.1072 16.6877 72.3253 15.2416 72.7085 13.6324L66.8716 12.2426ZM66.0412 17.7292C65.998 19.2847 65.998 20.8403 66.0412 22.3958L72.0389 22.2292C71.9988 20.7847 71.9988 19.3403 72.0389 17.8958L66.0412 17.7292ZM69.8865 25.1906C70.4755 25.0174 71.0865 24.8774 71.7207 24.7717L70.7343 18.8533C69.8686 18.9976 69.0213 19.1909 68.1935 19.4344L69.8865 25.1906ZM71.6954 24.7758C72.4773 24.6523 73.1496 24.5505 73.7143 24.4698L72.8658 18.5302C72.2638 18.6162 71.5611 18.7227 70.7597 18.8492L71.6954 24.7758Z" fill="black" mask="url(#path-2-outside-1_617_27)"/>
</svg>
